<?xml version="1.0" encoding="UTF-8" standalone="no"?>
<!-- Created with Inkscape (http://www.inkscape.org/) -->

<svg
   width="210mm"
   height="297mm"
   viewBox="0 0 210 297"
   version="1.1"
   id="svg1"
   xml:space="preserve"
   xmlns:inkscape="http://www.inkscape.org/namespaces/inkscape"
   xmlns:sodipodi="http://sodipodi.sourceforge.net/DTD/sodipodi-0.dtd"
   xmlns="http://www.w3.org/2000/svg"
   xmlns:svg="http://www.w3.org/2000/svg"><sodipodi:namedview
     id="namedview1"
     pagecolor="#ffffff"
     bordercolor="#000000"
     borderopacity="0.25"
     inkscape:showpageshadow="2"
     inkscape:pageopacity="0.0"
     inkscape:pagecheckerboard="0"
     inkscape:deskcolor="#d1d1d1"
     inkscape:document-units="mm" /><defs
     id="defs1" /><g
     inkscape:label="Layer 1"
     inkscape:groupmode="layer"
     id="layer1"><path
       style="fill:#000000"
       d="m 131.82433,211.16354 c -0.13542,-0.21912 0.61691,-0.80703 1.03273,-0.80703 0.34145,0 0.11695,0.7497 -0.26883,0.89774 -0.54622,0.2096 -0.58084,0.20549 -0.7639,-0.0907 z m -12.90665,-1.254 c -0.25466,-0.0665 -0.46302,-0.27628 -0.46302,-0.46607 0,-0.1898 -0.17859,-0.4933 -0.39687,-0.67446 -0.21828,-0.18116 -0.39688,-0.56681 -0.39688,-0.857 v -0.52763 l 0.59532,0.18112 c 0.32742,0.0996 1.07156,0.29901 1.65364,0.4431 0.58208,0.1441 1.36425,0.55439 1.73814,0.91178 0.37389,0.35738 0.76713,0.56246 0.87388,0.45571 0.10674,-0.10674 0.11551,0.0107 0.0195,0.26088 l -0.17458,0.45496 -1.49305,-0.0307 c -0.82117,-0.0169 -1.70141,-0.0851 -1.95607,-0.1517 z m 14.18037,-0.49048 c -0.0862,-0.22456 -0.0876,-0.47739 -0.003,-0.56185 0.26698,-0.26698 0.97014,0.1425 0.97014,0.56496 0,0.52812 -0.76412,0.52566 -0.96703,-0.003 z m -11.3361,-0.65005 c -0.0899,-0.14552 -0.0444,-0.26458 0.10107,-0.26458 0.14552,0 0.33816,0.11906 0.4281,0.26458 0.0899,0.14552 0.0445,0.26458 -0.10106,0.26458 -0.14552,0 -0.33817,-0.11906 -0.42811,-0.26458 z m 10.05417,-0.26458 c 0.0899,-0.14552 0.33509,-0.26459 0.54478,-0.26459 0.2097,0 0.38126,0.11907 0.38126,0.26459 0,0.14552 -0.24515,0.26458 -0.54478,0.26458 -0.29963,0 -0.4712,-0.11906 -0.38126,-0.26458 z m 7.28446,-0.5797 c 0.005,-0.19049 0.18322,-0.57746 0.39687,-0.85993 0.50566,-0.66854 0.49233,-1.51034 -0.0387,-2.44153 l -0.42712,-0.74905 0.32168,-1.18633 0.32169,-1.18633 0.53339,0.65716 0.5334,0.65717 -0.16712,1.80631 c -0.16019,1.73151 -0.64977,3.13419 -1.21608,3.48419 -0.14656,0.0906 -0.26268,0.009 -0.25805,-0.18166 z m -85.971227,-4.9063 c -0.4946,-0.0603 -1.18754,-0.29854 -1.53988,-0.52939 l -0.6406,-0.41975 0.80487,-0.33842 c 1.23383,-0.51879 1.86314,-0.36917 2.0874,0.49628 l 0.19507,0.75278 2.24516,-1.1182 c 1.23485,-0.61502 2.60236,-1.38133 3.03892,-1.70292 1.0952,-0.80678 2.319252,-1.14446 4.540102,-1.25247 l 1.89426,-0.0921 0.98003,-0.77729 c 1.53013,-1.21358 1.6763,-1.29979 1.87206,-1.10403 0.30362,0.30362 -1.15182,2.26083 -2.29944,3.09217 -0.62154,0.45024 -1.70419,0.90017 -2.57459,1.06995 -0.8261,0.16114 -2.39497,0.57524 -3.486382,0.92022 -1.77164,0.56 -5.44249,1.2663 -6.0038,1.15519 -0.11765,-0.0233 -0.61858,-0.0917 -1.11318,-0.15199 z m 56.064897,-2.19378 c -1.52797,-0.10283 -3.4925,-0.26172 -4.36563,-0.35308 -0.87312,-0.0914 -3.43297,-0.29467 -5.688536,-0.45182 -2.25557,-0.15715 -4.54222,-0.38213 -5.08144,-0.49996 -0.63184,-0.13807 -1.01312,-0.11605 -1.07245,0.0619 -0.0854,0.25626 -6.424899,-1.33016 -7.736729,-1.93608 -0.29104,-0.13443 -1.51294,-0.54982 -2.71533,-0.92309 -2.8903,-0.89727 -5.59103,-2.12474 -5.78455,-2.62905 -0.0856,-0.22315 -0.32033,-0.40574 -0.52156,-0.40574 -0.60116,0 -2.19144,-2.6699 -2.47226,-4.15065 -0.14282,-0.75311 -0.61691,-2.3002 -1.05352,-3.43797 -0.43661,-1.13777 -0.86997,-2.60445 -0.96301,-3.25929 -0.093,-0.65485 -0.50617,-2.14313 -0.91806,-3.3073 -0.41189,-1.16416 -1.12287,-3.54541 -1.57996,-5.29166 -0.45708,-1.74625 -0.98098,-3.53219 -1.16422,-3.96875 -0.18324,-0.43657 -0.60102,-1.92485 -0.92841,-3.30729 -0.32738,-1.38245 -0.93728,-3.88276 -1.35531,-5.55625 -0.41804,-1.67349 -0.88392,-3.81662 -1.0353,-4.7625 -0.15137,-0.94589 -0.33926,-2.01745 -0.41753,-2.38125 -0.0783,-0.36381 -0.25228,-1.19724 -0.38669,-1.85209 -0.13441,-0.65484 -0.4944,-2.32172 -0.79998,-3.70416 -0.30559,-1.38245 -0.71271,-3.40651 -0.90473,-4.49792 -0.19201,-1.09141 -0.64699,-3.35359 -1.011062,-5.02708 -0.36407,-1.67349 -0.8633,-4.17381 -1.10938,-5.55625 -0.24609,-1.38245 -0.56905,-2.87073 -0.7177,-3.30729 -0.38804,-1.13967 -0.98291,-3.88026 -1.40703,-6.4823 -0.20162,-1.23692 -0.555,-3.26099 -0.7853,-4.49791 -0.41013,-2.20287 -0.63817,-4.43234 -0.76452,-7.47448 l -0.0632,-1.52136 0.40638,-0.0313 c 0.22351,-0.0172 0.55876,-0.0112 0.74501,0.0134 0.18624,0.0246 0.51509,-0.3776 0.73078,-0.89381 l 0.39216,-0.93857 2.708802,-1.29271 c 2.60724,-1.24425 5.19886,-2.18649 7.00828,-2.54804 0.47294,-0.0945 0.85989,-0.25829 0.85989,-0.36397 0,-0.42379 -1.35753,-1.95763 -4.72791,-5.341976 -2.25774,-2.2671 -3.726532,-3.96949 -4.060462,-4.70624 l -0.52319,-1.154296 0.18042,-1.22695 c 0.17976,-1.22258 1.533062,-3.94761 3.141322,-6.325481 5.32745,-7.87678 7.81267,-10.79174 9.38821,-11.01158 1.11251,-0.15523 1.41912,-0.42635 0.48217,-0.42635 -0.78859,0 -0.90485,-0.29897 -0.30868,-0.79375 0.21828,-0.18116 0.39687,-0.41621 0.39687,-0.52233 0,-0.10613 -0.53578,-1.0087 -1.19062,-2.00572 l -1.19063,-1.81276 v -1.11768 -1.11769 l 0.71041,-0.5588 0.7104,-0.55881 0.0508,-1.20648 c 0.0344,-0.81725 0.22739,-1.38302 0.59809,-1.75372 l 0.54724,-0.54725 0.36084,0.29947 0.36084,0.29947 0.68012,-1.37958 c 0.8333,-1.69029 3.20901,-5.02548 5.22319,-7.3327 0.82575,-0.94589 1.74784,-2.04398 2.04909,-2.4402 0.30125,-0.39622 0.93532,-1.16184 1.40905,-1.70139 l 0.86131,-0.98098 1.15213,0.6112 c 2.10097,1.11457 5.317379,4.7979 7.751669,8.87699 1.2158,2.03729 2.35193,4.18042 2.52473,4.7625 0.35266,1.18798 0.29141,1.17939 2.91787,0.40917 l 1.846346,-0.54146 h 3.60683 3.60683 l 0.95489,0.64801 c 0.52519,0.3564 1.13655,0.68382 1.35858,0.7276 0.24511,0.0483 1.03292,-0.75187 2.00552,-2.03707 1.68847,-2.23113 4.69584,-5.05485 7.13193,-6.69639 0.80037,-0.53932 1.87834,-1.3034 2.39549,-1.69797 0.51716,-0.39456 1.41013,-0.91101 1.98438,-1.14766 0.57425,-0.23665 1.40128,-0.58569 1.83784,-0.77563 1.13747,-0.49492 1.96263,-0.64722 2.12072,-0.39141 0.0753,0.1218 0.0133,0.29782 -0.13772,0.39116 -0.16822,0.10397 -0.0737,0.34165 0.24397,0.6136 1.51327,1.29537 2.98133,5.74987 3.06743,9.30743 0.0299,1.23692 0.0713,2.59483 0.092,3.01757 l 0.0376,0.76861 0.50716,-0.45897 0.50715,-0.45897 0.54512,0.29173 c 0.85431,0.45722 1.16496,1.30941 1.13425,3.11157 -0.0303,1.77741 0.18439,2.01417 1.15835,1.2775 0.69813,-0.52804 2.13278,-0.51992 2.33737,0.0132 0.46312,1.20686 -0.39281,3.87019 -1.69365,5.27002 -0.27046,0.29105 -0.61212,0.84693 -0.75924,1.23529 l -0.26749,0.70612 2.06665,2.15456 2.06666,2.15456 0.42778,-1.06912 c 1.20086,-3.00125 7.42558,-7.4551 12.38206,-8.85948 2.02934,-0.575 4.612,-0.81702 4.83682,-0.45326 0.11873,0.19212 -0.0985,0.29488 -0.62333,0.29488 -1.44083,0 -6.35684,1.417 -8.01739,2.31096 -2.03263,1.09425 -4.9666,3.58316 -4.9666,4.21319 0,0.1835 -0.45594,0.79878 -1.01319,1.36728 -0.55725,0.56851 -1.26926,1.55124 -1.58225,2.18386 l -0.56908,1.1502 0.39217,0.53882 c 1.08356,1.48875 2.25889,3.38475 2.7151,4.379901 l 0.50957,1.11154 0.12903,-0.49194 c 0.071,-0.27057 0.44429,-0.66027 0.8296,-0.866 l 0.70057,-0.374061 0.52536,0.475441 0.52536,0.47544 1.74111,-1.134381 c 0.9576,-0.6239 2.12098,-1.32437 2.58529,-1.55658 0.90632,-0.45329 1.30496,-1.34826 0.60055,-1.34826 -0.22895,0 -0.41628,-0.17859 -0.41628,-0.39687 0,-0.563 0.24571,-0.49451 0.94922,0.26458 0.33716,0.3638 0.7505,0.66146 0.91854,0.66146 0.16804,0 0.24128,0.16741 0.16277,0.37201 -0.0785,0.20461 0.0899,0.58262 0.37438,0.84002 l 0.51714,0.468 0.96983,-0.90616 0.96983,-0.90616 -0.48013,0.79375 c -0.26407,0.43656 -1.00819,1.50812 -1.65361,2.381251 -5.26058,7.116526 -7.12095,10.772106 -7.54043,14.816662 l -0.0823,0.79375 0.92604,0.0133 c 2.74979,0.0395 3.20999,0.12993 3.8335,0.75345 l 0.63445,0.63444 -0.12596,3.66504 c -0.0693,2.01576 -0.23647,4.31987 -0.37154,5.12023 -0.13506,0.80037 -0.49333,3.53881 -0.79616,6.08542 -0.30282,2.54661 -0.6687,4.84341 -0.81307,5.10399 -0.14436,0.26058 -0.19572,0.58179 -0.11414,0.71381 0.1855,0.30013 -0.27627,4.46395 -0.80876,7.29277 -0.22055,1.1717 -0.50437,2.95764 -0.6307,3.96875 -0.29432,2.35575 -0.9194,5.82804 -1.47405,8.18839 -0.23937,1.01864 -0.47066,2.45426 -0.51399,3.19025 -0.10467,1.77788 -0.3726,3.40044 -0.82848,5.01716 -0.47294,1.67724 -1.15523,4.73779 -1.32594,5.9478 -0.0718,0.50932 -0.24308,1.52135 -0.3805,2.24895 -0.13742,0.72761 -0.37081,2.21589 -0.51865,3.3073 -0.14783,1.0914 -0.49794,3.05593 -0.77802,4.36562 -0.46032,2.15252 -0.83536,4.02106 -2.04456,10.18646 -0.58408,2.97807 -1.08408,4.1599 -1.81942,4.30047 -0.34197,0.0654 -0.71719,0.0261 -0.83382,-0.0873 -0.11664,-0.11339 -0.96002,-0.62718 -1.87419,-1.14176 l -1.66212,-0.93559 -1.17377,0.21928 c -0.64558,0.12061 -1.22883,0.16424 -1.29611,0.0969 -0.0673,-0.0673 -0.27828,0.12739 -0.46889,0.4326 -0.19061,0.30521 -0.54286,0.55493 -0.78277,0.55493 -0.23992,0 -0.69839,0.2123 -1.01884,0.47178 l -0.58262,0.47178 0.44452,1.35903 c 0.63469,1.94047 0.50098,2.28736 -0.96243,2.49669 -1.27234,0.182 -2.33374,0.62895 -2.67707,1.12731 -0.23114,0.33551 0.0276,3.008 0.34843,3.59841 0.14608,0.26885 -0.002,0.62541 -0.4603,1.10534 l -0.67594,0.70847 0.68644,0.68644 c 0.37755,0.37754 0.81342,0.9237 0.96862,1.21369 l 0.28217,0.52725 -0.47443,0.14626 c -0.26094,0.0804 -1.38414,0.57241 -2.496,1.09327 l -2.02158,0.94701 -0.83852,-0.16771 -0.83853,-0.1677 -0.61467,0.66324 c -0.34156,0.36854 -1.47206,0.95486 -2.54426,1.31953 -1.06127,0.36097 -2.1514,0.89439 -2.42251,1.1854 -0.27111,0.291 -0.69665,0.51009 -0.94565,0.48686 -0.24899,-0.0232 -1.70287,-0.12637 -3.23083,-0.22921 z m -2.93865,-8.05546 c 0.65825,-0.0896 2.37955,-0.806 3.96875,-1.65188 l 2.80635,-1.49375 2.91042,-2.66297 c 4.22244,-3.86345 6.48229,-6.10589 6.48229,-6.43236 0,-0.1574 -0.73307,-0.9816 -1.62905,-1.83156 -0.89598,-0.84995 -2.30064,-2.24234 -3.12145,-3.09419 l -1.49239,-1.54883 -1.97178,2.59397 c -1.08448,1.42669 -2.3885,3.03133 -2.89783,3.56587 -1.54546,1.62199 -3.70416,4.1667 -3.70416,4.36653 0,0.10347 0.44648,0.58274 0.99218,1.06504 1.13896,1.00664 0.80473,1.15152 -0.78522,0.34039 l -1.09488,-0.55857 -1.0774,1.20169 c -0.59256,0.66092 -1.76453,1.97646 -2.60436,2.92341 l -1.52696,1.72172 1.22984,0.93906 c 0.7863,0.60038 1.43242,0.89857 1.79155,0.82681 0.30894,-0.0617 1.08478,-0.1834 1.7241,-0.27038 z m -12.023756,-2.32257 c -0.83218,-0.90951 -1.73498,-2.0204 -2.00622,-2.46865 -0.27123,-0.44824 -0.79097,-0.97438 -1.15497,-1.16918 -0.364,-0.19481 -0.66182,-0.49497 -0.66182,-0.66703 0,-0.17205 -0.35483,-0.77701 -0.78852,-1.34435 -1.310729,-1.71465 -4.047369,-5.8986 -5.693399,-8.70444 -1.90484,-3.247 -1.86849,-3.20398 -2.36164,-2.79471 l -0.39932,0.33141 -0.59544,-1.22558 -0.59543,-1.22558 0.30507,-0.48849 0.30506,-0.48849 -2.43038,-4.9039 -2.43037,-4.9039 -0.59027,-0.0217 c -0.63012,-0.0232 -0.85845,-0.58245 -0.81908,-2.00611 0.0121,-0.43656 -0.29894,-1.62719 -0.69115,-2.64584 -0.39221,-1.01864 -1.31358,-4.1738 -2.04749,-7.01145 -1.22447,-4.73437 -1.57775,-6.26939 -2.72169,-11.82575 -0.39156,-1.9019 -0.64985,-6.27521 -0.38619,-6.53887 0.0767,-0.0767 0.28036,0.97608 0.45256,2.33952 0.30805,2.43895 1.44911,6.61304 1.88071,6.87979 0.20084,0.12412 1.11612,-1.08261 3.59923,-4.74532 0.49328,-0.7276 1.09207,-1.66364 1.33064,-2.08008 l 0.43377,-0.75716 -0.86798,-3.79029 c -0.47739,-2.08466 -0.94606,-3.74203 -1.0415,-3.68304 -0.0954,0.059 -0.93518,-0.009 -1.86609,-0.15204 l -1.69256,-0.25928 -1.32291,-1.3937 c -1.33962,-1.41129 -2.24896,-3.4523 -2.24896,-5.04774 0,-0.39196 -0.17288,-0.77899 -0.38418,-0.86007 -0.21177,-0.0813 -0.46272,-0.67123 -0.55921,-1.31462 -0.0963,-0.64195 -0.27083,-1.16719 -0.38793,-1.16719 -0.1171,0 -0.40792,-0.0748 -0.64628,-0.1663 l -0.43338,-0.1663 0.16052,4.06891 c 0.0883,2.23789 0.27011,5.0214 0.40406,6.18557 0.13395,1.16417 0.2614,2.83104 0.28323,3.70417 0.0218,0.87312 0.20999,2.77812 0.41813,4.23333 0.20814,1.45521 0.49418,3.59833 0.63564,4.7625 0.39932,3.28628 1.00911,6.59686 1.4401,7.81841 0.21572,0.61141 0.39222,1.39964 0.39222,1.75162 0,1.15965 1.60819,7.70098 2.39571,9.74455 0.28039,0.72761 0.68554,1.99814 0.90033,2.82341 0.21479,0.82528 0.62645,1.88843 0.91478,2.36256 0.28834,0.47413 0.46372,0.96001 0.38973,1.07972 -0.18067,0.29234 1.59854,4.39871 2.9025,6.69889 0.57746,1.01865 1.27476,2.32834 1.54956,2.91042 0.46594,0.987 2.23661,3.86337 4.01743,6.52617 1.66987,2.49687 7.06976,8.42279 7.67513,8.42279 0.0894,0 1.121479,0.96147 2.293459,2.1366 1.84561,1.85058 3.23606,2.84252 4.03721,2.88013 0.12135,0.006 -0.46024,-0.73379 -1.29242,-1.64329 z m -26.116199,-61.2933 c -0.11004,-0.49619 -0.13971,-0.96252 -0.0659,-1.03629 0.27588,-0.27588 0.43329,0.19636 0.35102,1.05311 l -0.085,0.88533 z m -0.19639,-1.87597 c 0,-0.19403 0.0794,-0.27341 0.17639,-0.17639 0.097,0.097 0.097,0.25576 0,0.35278 -0.097,0.097 -0.17639,0.0176 -0.17639,-0.17639 z m 29.368749,63.3677 c 0,-0.0728 -0.0595,-0.13229 -0.13229,-0.13229 -0.0728,0 -0.13229,0.0595 -0.13229,0.13229 0,0.0728 0.0595,0.1323 0.13229,0.1323 0.0728,0 0.13229,-0.0595 0.13229,-0.1323 z m -1.05833,-1.05833 c 0,-0.0728 -0.0595,-0.13229 -0.13229,-0.13229 -0.0728,0 -0.1323,0.0595 -0.1323,0.13229 0,0.0728 0.0595,0.13229 0.1323,0.13229 0.0728,0 0.13229,-0.0595 0.13229,-0.13229 z m 7.374926,-5.23682 0.94261,-1.00348 -0.91763,-0.86933 c -0.50469,-0.47812 -1.09809,-1.09812 -1.31866,-1.37776 -0.22056,-0.27964 -1.01499,-1.24765 -1.76538,-2.15113 l -1.364356,-1.64269 -0.85483,1.33214 c -0.47015,0.73267 -1.16401,1.66001 -1.5419,2.06075 -0.37789,0.40074 -0.94481,1.07627 -1.25981,1.50118 -0.315,0.42491 -0.81179,1.04803 -1.10397,1.38471 l -0.53124,0.61215 2.49958,2.56285 2.49957,2.56285 1.886696,-1.98438 c 1.03769,-1.0914 2.31088,-2.43594 2.82932,-2.98786 z m -20.618635,1.26909 c -1.08341,-1.09085 -2.00961,-1.98382 -2.05821,-1.98438 -0.21461,-0.002 1.62735,2.12975 2.59512,3.00407 1.84192,1.66407 1.5185,1.04983 -0.53691,-1.01969 z m -0.14821,-2.58071 c -0.10669,-0.1819 -0.6495,-1.0088 -1.20624,-1.83756 -0.99841,-1.48622 -1.31409,-2.20812 -0.69476,-1.58879 0.37945,0.37944 0.74083,0.41342 0.74083,0.0696 0,-0.2384 -1.91382,-3.14637 -2.97121,-4.51464 -0.47969,-0.62071 -1.19423,-1.83985 -4.10943,-7.01146 -2.24055,-3.97476 -2.85427,-5.29238 -3.6355,-7.80521 -0.42979,-1.38245 -0.85868,-2.57307 -0.95307,-2.64583 -0.0944,-0.0728 -0.71445,-1.79917 -1.3779,-3.83646 -1.23763,-3.8005 -1.4372,-4.15273 -0.97652,-1.72354 0.14513,0.76527 0.39088,2.75618 0.54611,4.42425 l 0.28224,3.03287 0.89405,1.96186 c 0.51326,1.12627 1.05743,1.96185 1.27766,1.96185 0.45401,0 0.70482,0.55821 0.70482,1.56866 0,0.40239 0.23813,1.00619 0.52917,1.34176 0.29104,0.33557 0.52917,0.80308 0.52917,1.03891 0,0.23583 0.63108,1.73566 1.40241,3.33296 2.0004,4.14252 2.03659,4.20121 2.37918,3.85862 0.50352,-0.50353 0.91723,-0.32619 1.52204,0.65242 0.43337,0.7012 0.50729,1.02242 0.28617,1.24354 -0.16398,0.16397 -0.29814,0.43627 -0.29814,0.60511 0,0.29878 4.32091,5.61124 4.87954,5.99928 0.40401,0.28064 0.46946,0.24698 0.24938,-0.12824 z m 11.862349,-2.87233 c 0.54119,-0.79312 1.19604,-1.68129 1.45521,-1.97372 0.81777,-0.92268 1.66186,-2.19857 1.66186,-2.51202 0,-0.16604 -1.02872,-1.8675 -2.28605,-3.78103 -1.25733,-1.91352 -2.67665,-4.07444 -3.15406,-4.80204 -0.47741,-0.72761 -1.07809,-1.7694 -1.33484,-2.31511 -0.25675,-0.5457 -0.55571,-0.99218 -0.66437,-0.99218 -0.10866,0 -0.47108,0.38695 -0.80538,0.85989 -0.334299,0.47294 -1.680219,1.96675 -2.990939,3.31958 -1.31071,1.35282 -2.46137,2.60297 -2.55702,2.77812 -0.16612,0.30421 2.86734,5.15086 4.0909,6.53616 0.32133,0.3638 1.452759,1.74967 2.514279,3.07971 l 1.93004,2.41825 0.5782,-0.58678 c 0.31801,-0.32273 1.02099,-1.23571 1.56217,-2.02883 z m 13.569136,-1.43328 c 0.54326,-0.72423 1.4293,-1.79303 1.96898,-2.37512 0.53967,-0.58208 1.61141,-1.92562 2.38165,-2.98564 l 1.40043,-1.92731 -1.31215,-1.51228 c -0.72168,-0.83174 -1.62978,-1.98852 -2.01798,-2.5706 -0.38821,-0.58208 -1.05543,-1.51318 -1.48271,-2.0691 l -0.77686,-1.01077 -0.63481,1.01077 c -0.34914,0.55592 -0.7845,1.29301 -0.96747,1.63798 -0.18297,0.34496 -0.63165,0.96277 -0.99708,1.3729 -0.36542,0.41012 -1.45838,1.91382 -2.42878,3.34153 -0.97041,1.42772 -2.04547,2.97511 -2.38903,3.43865 l -0.62465,0.84278 0.99929,1.40617 c 0.54961,0.7734 1.65198,2.21058 2.44971,3.19374 l 1.45042,1.78757 0.99664,-1.13224 c 0.54816,-0.62274 1.44113,-1.7248 1.9844,-2.44903 z m 18.91886,-4.49148 c 2.56659,-5.48609 2.61988,-5.61634 4.24859,-10.38583 0.55916,-1.63746 1.19307,-3.36387 1.40867,-3.83646 0.47457,-1.04025 1.43714,-4.19099 1.62758,-5.32747 0.0759,-0.4529 0.31216,-1.35924 0.52505,-2.01408 0.45202,-1.39043 1.0671,-3.53784 1.56579,-5.46663 l 0.35307,-1.36558 -0.85368,-0.82741 -0.85367,-0.82742 -0.68972,1.00237 c -0.37934,0.55131 -0.81439,1.30003 -0.96677,1.66383 -0.53395,1.27474 -3.54001,6.76095 -4.49418,8.20209 -0.52992,0.80036 -1.30402,2.11005 -1.72023,2.91041 -0.4162,0.80037 -1.02453,1.81716 -1.35184,2.25954 l -0.59509,0.80433 0.46956,0.65088 c 0.72416,1.00378 2.93369,5.08319 2.81662,5.20026 -0.20315,0.20315 -2.56644,-2.36608 -3.25116,-3.53446 l -0.69563,-1.18701 -0.33151,0.35063 c -0.18234,0.19284 -1.61048,2.25562 -3.17366,4.58396 -1.56318,2.32833 -3.12385,4.56989 -3.46814,4.98123 -0.3443,0.41135 -0.6257,0.8876 -0.62533,1.05834 3.7e-4,0.17073 1.39404,1.72663 3.09704,3.45755 l 3.09637,3.14712 1.31216,-1.42703 c 0.85073,-0.92521 1.74749,-2.35755 2.55011,-4.07316 z m -26.8574,-1.65179 c 0.58209,-0.82451 1.51237,-2.15944 2.0673,-2.96652 0.55492,-0.80707 1.18369,-1.70553 1.39725,-1.99658 0.21357,-0.29104 1.08504,-1.59203 1.9366,-2.89109 l 1.54831,-2.36193 -0.87038,-1.23829 c -0.47871,-0.68106 -1.13347,-1.76132 -1.45503,-2.40057 -0.32156,-0.63926 -0.73842,-1.34088 -0.92635,-1.55916 -0.18793,-0.21828 -0.83968,-1.34937 -1.44832,-2.51354 -0.60864,-1.16417 -1.34635,-2.50793 -1.63935,-2.98614 l -0.53273,-0.86947 -0.34866,0.28937 c -0.191766,0.15915 -1.608606,2.03869 -3.148516,4.17676 -1.53993,2.13807 -3.34531,4.58549 -4.01195,5.43872 l -1.21209,1.55132 1.25006,2.02055 c 0.68753,1.11131 1.65969,2.73493 2.16036,3.60806 0.50067,0.87312 1.17682,1.94468 1.50254,2.38125 0.32573,0.43656 0.97977,1.47836 1.45342,2.3151 0.47364,0.83675 0.94173,1.51684 1.04019,1.51132 0.0985,-0.006 0.65527,-0.68464 1.237346,-1.50916 z m 17.09366,-5.39709 c 2.92271,-3.87046 5.26364,-7.33139 5.26364,-7.782 0,-0.18138 -0.40625,-0.93347 -0.90277,-1.6713 -0.49653,-0.73783 -1.43342,-2.32737 -2.08198,-3.53232 -0.64857,-1.20494 -1.44448,-2.6369 -1.7687,-3.18214 l -0.58949,-0.99134 -0.63831,0.94061 c -0.35107,0.51733 -0.88967,1.43968 -1.1969,2.04967 -0.30722,0.60998 -1.06641,1.88297 -1.68707,2.82886 -0.62067,0.94588 -1.91295,2.99349 -2.87173,4.55023 l -1.74324,2.83044 1.11769,1.59599 c 1.98433,2.83347 4.15743,5.57542 4.41874,5.57542 0.14,0 1.34605,-1.44546 2.68012,-3.21212 z m -30.740085,-3.32115 c 0.78915,-0.8978 1.6013,-1.90846 1.80479,-2.2459 l 0.36997,-0.61354 -1.21849,-2.24896 c -0.67017,-1.23692 -1.92668,-3.70747 -2.79226,-5.4901 -0.86557,-1.78263 -1.68941,-3.24115 -1.83075,-3.24115 -0.14133,0 -0.82806,0.89803 -1.52606,1.99563 -0.698,1.09759 -1.84635,2.7347 -2.55188,3.63802 -0.70553,0.90332 -1.40257,1.86615 -1.54897,2.13962 l -0.26619,0.49723 2.56846,5.17824 2.56847,5.17825 1.49405,-1.57748 c 0.82173,-0.86762 2.13971,-2.31205 2.92886,-3.20986 z m 23.010225,-5.08718 c 0.88903,-1.29801 1.61641,-2.4251 1.61641,-2.50464 0,-0.1467 2.68467,-4.50656 4.24215,-6.88918 l 0.85163,-1.30281 -0.44419,-0.68157 c -0.24431,-0.37486 -1.71895,-3.2591 -3.27698,-6.40942 l -2.83278,-5.72786 -0.83967,1.36224 c -0.46182,0.74923 -1.44632,2.43379 -2.18778,3.74348 -0.74146,1.30969 -2.05846,3.45281 -2.92666,4.7625 -3.04038,4.58639 -3.00437,4.38818 -1.32161,7.27604 3.52989,6.05782 5.15861,8.73125 5.3193,8.73125 0.10107,0 0.91115,-1.06201 1.80018,-2.36003 z m -17.680036,-1.40173 c 0.93591,-1.19584 2.19632,-2.78755 2.8009,-3.53714 0.60458,-0.74959 1.41313,-1.86012 1.79677,-2.46785 0.38364,-0.60773 1.10795,-1.64264 1.60956,-2.29979 l 0.91203,-1.19483 -0.39935,-0.95579 c -0.21965,-0.52569 -0.50071,-1.08399 -0.62458,-1.24067 -0.2762,-0.34936 -2.93955,-6.84833 -4.09665,-9.99645 -0.46561,-1.26679 -0.91847,-2.37515 -1.00635,-2.46303 -0.0879,-0.0879 -0.51699,0.55505 -0.95358,1.42874 -0.43659,0.8737 -1.02536,1.92253 -1.30838,2.33074 -0.28302,0.40822 -1.03451,1.69471 -1.669979,2.85887 -1.2765,2.33854 -4.40643,7.53429 -4.76841,7.91567 -0.22209,0.23399 1.17149,3.06453 4.4723,9.08381 0.817939,1.49159 1.497719,2.71198 1.510609,2.71198 0.0129,0 0.78919,-0.97841 1.72511,-2.17426 z m 32.672696,-0.67001 c 1.05172,-1.55464 3.03314,-4.70596 4.86601,-7.73906 0.92333,-1.52797 1.75069,-2.83766 1.83857,-2.91042 0.0879,-0.0728 0.40874,-0.60854 0.71299,-1.19062 0.30426,-0.58209 0.78051,-1.44301 1.05834,-1.91316 0.36112,-0.61113 0.4297,-0.96665 0.24055,-1.24705 -0.14552,-0.21572 -1.17181,-1.73604 -2.28063,-3.3785 -1.10883,-1.64246 -2.40902,-3.70067 -2.88932,-4.57379 -0.4803,-0.87313 -1.02455,-1.8123 -1.20944,-2.08705 l -0.33618,-0.49954 -0.82414,1.69017 c -0.45328,0.92959 -1.17517,2.52361 -1.60421,3.54225 -0.78865,1.87245 -3.00007,6.29277 -4.95736,9.90909 l -1.0671,1.97158 0.67302,1.33571 c 0.37016,0.73464 1.23854,2.2882 1.92973,3.45237 0.6912,1.16417 1.57382,2.68221 1.96139,3.37344 0.38757,0.69122 0.81985,1.25677 0.96062,1.25677 0.14077,0 0.55799,-0.44649 0.92716,-0.99219 z m -45.415045,-4.93561 c 1.46853,-2.02336 2.67006,-3.91051 2.67006,-4.19366 0,-0.28315 -0.47443,-1.51341 -1.05428,-2.7339 -0.57986,-1.22049 -1.40402,-3.20287 -1.83147,-4.40529 -1.17834,-3.31468 -1.64469,-4.5559 -1.75208,-4.66329 -0.13831,-0.13831 -1.34111,1.24827 -2.03399,2.34477 -0.32183,0.50933 -1.22194,1.75948 -2.00024,2.77813 l -1.41508,1.85208 0.1679,0.92604 c 0.16737,0.92309 0.83523,2.90519 2.58534,7.67292 1.02146,2.78272 1.18737,3.24628 1.38091,3.85846 0.0728,0.23038 0.24053,0.37921 0.37265,0.33073 0.13212,-0.0485 1.44175,-1.74363 2.91028,-3.76699 z m -11.96587,-2.32389 c -0.0845,-0.21107 -0.14716,-0.14838 -0.15985,0.15985 -0.0115,0.27891 0.0511,0.43518 0.13896,0.34726 0.0879,-0.0879 0.0973,-0.31612 0.0209,-0.50711 z m 35.249525,-6.89571 c 3.57927,-5.50481 5.4074,-8.40386 5.81023,-9.21389 l 0.3387,-0.68108 -1.47502,-3.74689 c -0.81126,-2.06079 -1.47502,-3.86766 -1.47502,-4.01527 0,-0.14761 -0.44648,-0.26894 -0.99219,-0.26961 -1.10522,-0.001 -2.39126,-0.99236 -3.12227,-2.40597 l -0.40975,-0.79237 -1.609386,0.0784 -1.60938,0.0784 -1.23695,3.05218 c -0.68032,1.6787 -1.67659,3.94194 -2.21392,5.02943 -0.53734,1.08748 -0.97698,2.14334 -0.97698,2.34635 0,0.48014 1.8715,5.2862 3.30594,8.48974 0.61901,1.38245 1.45595,3.31722 1.85987,4.29948 0.40393,0.98227 0.83525,1.78594 0.95851,1.78594 0.12325,0 1.404676,-1.8157 2.847616,-4.0349 z m 15.1568,3.13612 c 0.53782,-0.7405 4.06711,-7.35553 6.60037,-12.37122 l 1.82465,-3.6127 -1.42517,-3.13417 c -0.78384,-1.7238 -1.62564,-3.74886 -1.87068,-4.50014 -0.24503,-0.75129 -0.58823,-1.40914 -0.76265,-1.46191 -0.17442,-0.0528 -1.48383,-0.0334 -2.90979,0.0431 l -2.59265,0.13899 -0.59999,1.71979 c -0.81051,2.32321 -1.307,3.43261 -3.48748,7.79258 l -1.86443,3.72805 2.32746,4.49229 c 1.28011,2.47075 2.71021,5.23643 3.178,6.14593 0.46779,0.90951 0.91427,1.6499 0.99218,1.64533 0.0779,-0.005 0.34349,-0.28622 0.59018,-0.62588 z m -32.719195,-2.34237 c 0.82586,-1.34606 2.20515,-3.57849 3.06508,-4.96093 0.85994,-1.38245 2.168779,-3.57368 2.908549,-4.8694 l 1.34504,-2.35586 -1.07479,-3.59727 c -0.59113,-1.97849 -1.2622,-4.26906 -1.49126,-5.09015 l -0.416489,-1.49289 -1.11398,-0.15493 c -0.61269,-0.0852 -1.73906,-0.23243 -2.50304,-0.32714 l -1.38906,-0.1722 v 0.42222 c 0,0.91465 -3.32095,8.06022 -5.56926,11.98317 l -0.62609,1.09244 0.76226,1.95027 c 0.78669,2.01277 2.53257,6.1934 3.60441,8.63101 0.33593,0.76398 0.6977,1.38906 0.80392,1.38906 0.10623,0 0.86885,-1.10133 1.69471,-2.4474 z m 53.090075,-2.11666 c 0.24194,-0.90951 0.63544,-2.42755 0.87444,-3.37344 0.23901,-0.94589 0.49686,-1.95792 0.573,-2.24896 0.0762,-0.29104 -0.58377,0.89958 -1.46647,2.64583 -0.8827,1.74625 -1.60788,3.28469 -1.6115,3.41875 -0.008,0.27761 0.7864,1.21146 1.02991,1.21146 0.0884,0 0.35868,-0.74414 0.60062,-1.65364 z m -0.0431,-7.4516 2.90387,-5.75839 v -4.75641 c 0,-2.75626 -0.11456,-4.97047 -0.27243,-5.26545 -0.33888,-0.63319 -1.60769,-1.30826 -2.45893,-1.30826 -0.35253,0 -1.16211,0.22872 -1.79907,0.50826 -0.63696,0.27954 -1.60527,0.59058 -2.1518,0.69119 -1.25816,0.23161 -2.02043,1.12424 -3.3479,3.92042 -2.64337,5.56799 -3.19904,6.79692 -3.19904,7.07507 0,0.3995 2.33891,4.26967 4.46261,7.38423 2.43092,3.56513 2.52591,3.68466 2.75384,3.46515 0.11274,-0.10858 1.51173,-2.7887 3.10885,-5.95581 z m 1.84553,0.77087 c 0,-0.0728 -0.0595,-0.13229 -0.13229,-0.13229 -0.0728,0 -0.13229,0.0595 -0.13229,0.13229 0,0.0728 0.0595,0.13229 0.13229,0.13229 0.0728,0 0.13229,-0.0595 0.13229,-0.13229 z m -28.68207,-5.90724 c 0.66044,-1.26217 1.55179,-2.9091 1.98077,-3.65985 1.12892,-1.97568 2.1284,-4.32354 1.84053,-4.32354 -0.13632,0 -0.81943,0.5451 -1.51802,1.21134 -1.61936,1.54435 -2.89854,2.20032 -4.9282,2.52719 -0.89113,0.14351 -1.66488,0.30557 -1.71945,0.36014 -0.35236,0.35236 2.46773,6.59725 2.86761,6.35011 0.15178,-0.0938 0.81632,-1.20323 1.47676,-2.46539 z m 34.15448,1.492 c -0.0845,-0.21106 -0.14716,-0.14837 -0.15985,0.15986 -0.0115,0.27891 0.051,0.43518 0.13896,0.34726 0.0879,-0.0879 0.0973,-0.31612 0.0209,-0.50712 z m -67.491605,-0.81209 c 2.25247,-3.48407 5.38362,-9.45705 4.95758,-9.45705 -0.0933,0 -0.79171,0.56555 -1.55215,1.25677 -2.06354,1.87573 -3.16377,2.60543 -4.48699,2.97591 -0.65614,0.1837 -1.19298,0.46606 -1.19298,0.62745 0,0.51327 1.43007,5.4587 1.57795,5.45682 0.078,-0.001 0.39148,-0.38795 0.69659,-0.8599 z m 17.158899,-3.22162 c 1.09879,-2.16359 1.99781,-4.09448 1.99781,-4.29086 0,-0.19639 -0.26789,-0.36424 -0.59532,-0.37301 -0.63352,-0.017 -2.18625,-0.1378 -4.92613,-0.38336 l -1.68498,-0.15102 0.18927,0.73818 c 0.10409,0.406 0.24367,1.02861 0.31017,1.38358 0.0665,0.35496 0.602,1.96231 1.19,3.57187 0.588,1.60957 1.12016,3.09235 1.1826,3.29508 0.0624,0.20273 0.16419,0.31792 0.22614,0.25597 0.0619,-0.0619 1.01165,-1.88285 2.11044,-4.04643 z m 50.681136,2.09895 c 0,-0.0728 -0.0595,-0.13229 -0.1323,-0.13229 -0.0728,0 -0.13229,0.0595 -0.13229,0.13229 0,0.0728 0.0595,0.13229 0.13229,0.13229 0.0728,0 0.1323,-0.0595 0.1323,-0.13229 z m -17.34065,-3.02192 c 0.65202,-1.29826 1.7285,-3.27892 2.39216,-4.40146 0.66367,-1.12255 1.14667,-2.10101 1.07333,-2.17435 -0.0733,-0.0733 -0.8212,0.0476 -1.66191,0.26866 -0.84071,0.2211 -2.24293,0.55023 -3.11606,0.7314 -0.87312,0.18116 -2.0262,0.43607 -2.56239,0.56647 l -0.9749,0.23707 0.78293,1.89863 c 1.04064,2.52358 2.42812,5.23404 2.6793,5.23404 0.11112,0 0.73552,-1.06221 1.38754,-2.36046 z m -19.4521,-4.40733 c 0.22549,-1.13446 0.49581,-1.79683 0.77614,-1.90184 0.23658,-0.0886 0.5717,-0.34709 0.74471,-0.57439 l 0.31455,-0.41327 0.41112,0.40439 0.41112,0.4044 -0.52724,0.98371 c -0.52925,0.98745 -0.69942,2.04482 -0.3288,2.04297 0.90124,-0.004 4.48015,-3.30898 4.67365,-4.31528 0.38109,-1.98196 0.95792,-5.24309 1.09667,-6.20017 0.0896,-0.61806 0.37304,-1.38323 0.62986,-1.70038 l 0.46694,-0.57665 0.60704,0.56555 0.60703,0.56554 -0.16387,1.5679 -0.16388,1.5679 1.06912,-0.27138 c 0.63284,-0.16063 1.24052,-0.53295 1.48914,-0.91239 l 0.42001,-0.64101 -0.83487,-0.76253 c -0.45917,-0.41939 -0.83486,-0.89631 -0.83486,-1.05983 0,-0.16351 0.38001,-0.74992 0.84446,-1.30314 l 0.84446,-1.00585 0.86683,0.36219 c 1.3055,0.54547 2.64927,0.45129 3.61347,-0.25325 0.46323,-0.33848 1.27222,-0.73899 1.79775,-0.89002 1.08266,-0.31112 3.10449,-0.1809 3.60201,0.23201 0.18537,0.15384 0.73183,0.19998 1.23978,0.10469 0.50855,-0.0954 0.97932,-0.0555 1.06965,0.0907 0.23853,0.38595 1.25981,-0.0728 1.47857,-0.66416 0.21259,-0.57467 -1.49325,-4.34316 -1.96597,-4.34316 -0.15541,0 -0.73079,0.49036 -1.27863,1.08969 -0.70393,0.77008 -1.14682,1.05027 -1.51006,0.95528 -0.29242,-0.0765 -0.57281,0.0189 -0.65047,0.22127 -0.18702,0.48737 -2.18592,1.48348 -3.45017,1.71932 -0.60732,0.1133 -1.294,0.0776 -1.65287,-0.0859 -0.44289,-0.2018 -0.91534,-0.18942 -1.6959,0.0444 -0.59509,0.17829 -1.57771,0.38034 -2.18359,0.44899 -0.60589,0.0687 -1.4588,0.22936 -1.89536,0.35712 -1.5122,0.44256 -2.77813,0.57418 -2.77813,0.28885 0,-0.15211 -0.42454,-0.27657 -0.94343,-0.27657 -0.51889,0 -1.17384,-0.12331 -1.45545,-0.27402 -0.62279,-0.33331 -3.44768,-0.434 -3.92362,-0.13985 -0.24328,0.15036 -0.31318,0.0683 -0.24053,-0.2824 0.0664,-0.32043 0.29927,-0.47374 0.6619,-0.43576 l 0.55947,0.0586 -0.023,-1.51381 c -0.0237,-1.55847 0.39857,-2.7641 1.58583,-4.527286 0.36963,-0.54893 0.60388,-1.29303 0.60388,-1.91823 0,-1.00774 0.18285,-1.22647 0.67469,-0.80708 0.43066,0.36723 1.74871,0.86167 1.58323,0.59392 -0.0864,-0.13975 -0.63064,-0.52028 -1.20949,-0.84561 l -1.05244,-0.5915 0.16261,-0.51235 c 0.0935,-0.29461 0.0164,-0.60271 -0.18139,-0.72496 l -0.344,-0.2126 0.32158,-0.70578 c 0.17687,-0.38818 0.63931,-1.122346 1.02765,-1.631496 l 0.70608,-0.92571 1.66928,0.14052 c 2.01369,0.16952 2.20926,-0.16124 0.29869,-0.50516 -0.75382,-0.1357 -1.41492,-0.38455 -1.4691,-0.553 -0.0542,-0.16845 0.45168,-0.87238 1.12413,-1.56428 l 1.22265,-1.25801 0.81939,0.81939 0.8194,0.81939 1.07997,-0.57802 c 0.59398,-0.31791 1.15767,-0.68482 1.25265,-0.81536 0.26155,-0.35946 4.25441,0.0773 4.74218,0.51874 0.23097,0.20903 0.65608,0.38005 0.94467,0.38005 0.2886,0 0.79346,0.36349 1.12192,0.80775 0.32845,0.44426 0.88031,0.93674 1.22635,1.09441 0.34604,0.15767 1.40939,1.17066 2.36299,2.2511 0.9536,1.080436 1.73381,1.894586 1.73381,1.809206 0,-0.0854 0.37658,0.0395 0.83683,0.27752 l 0.83683,0.43274 0.44823,-0.59423 c 0.29842,-0.39563 0.51032,-0.49377 0.63399,-0.29366 0.30066,0.48648 0.66564,0.35302 1.48355,-0.54248 0.52879,-0.578946 0.81504,-1.221336 0.91373,-2.050516 0.079,-0.66411 0.27218,-1.93985 0.42921,-2.83499 l 0.28552,-1.62752 -1.62421,-3.185771 -1.6242,-3.18577 -1.30974,-0.94095 c -0.72035,-0.51753 -1.30974,-1.04633 -1.30974,-1.17512 0,-0.12879 -0.23891,-0.29664 -0.53092,-0.373 -0.33216,-0.0869 -0.59217,-0.44509 -0.69453,-0.9569 -0.11385,-0.56927 -0.31621,-0.81807 -0.66538,-0.81807 -0.27846,0 -0.63589,-0.29437 -0.80314,-0.66145 -0.39746,-0.87232 -0.60976,-0.83444 -1.03164,0.18407 -0.19263,0.46504 -0.6886,1.23091 -1.10217,1.70194 l -0.75193,0.8564 -0.84817,-0.28512 c -0.46649,-0.15681 -1.00026,-0.4042 -1.18616,-0.54974 -0.24182,-0.18933 -0.61828,-0.04 -1.32292,0.52461 -2.39431,1.91863 -2.83406,1.87713 -4.68451,-0.44207 -0.81026,-1.0155 -1.7083,-1.97219 -1.99565,-2.12597 l -0.52246,-0.27962 v -1.18962 c 0,-0.78295 -0.12829,-1.23885 -0.37529,-1.33363 -0.42531,-0.1632 -1.07845,-2.55641 -0.85594,-3.13627 0.0971,-0.2531 0.0178,-0.33114 -0.23723,-0.23329 -0.34364,0.13187 -1.05529,-0.46666 -2.20196,-1.85196 l -0.36312,-0.43869 0.36312,-0.43938 0.36313,-0.43939 -0.58328,0.36322 c -0.80792,0.50311 -0.99144,0.1912 -0.47506,-0.80737 0.57905,-1.11976 0.38033,-1.23853 -0.4719,-0.28205 l -0.69202,0.77667 -1.24405,-0.13681 c -0.68423,-0.0752 -1.52368,-0.24311 -1.86544,-0.37305 l -0.62138,-0.23624 v 0.7872 c 0,0.43442 -0.23714,1.02434 -0.52916,1.31636 -0.29105,0.29105 -0.52917,0.63274 -0.52917,0.75933 0,0.12659 -0.68769,0.36545 -1.5282,0.53081 -1.1091,0.21821 -1.86529,0.57921 -2.75737,1.31639 l -1.22918,1.01573 -1.674396,-0.22509 c -2.16767,-0.2914 -2.33585,-0.36455 -2.33585,-1.01592 0,-0.30017 -0.20836,-0.62265 -0.46302,-0.7166 -0.25466,-0.094 -0.54016,-0.28594 -0.63444,-0.42663 -0.31666,-0.4725 -1.935,-0.8665 -3.24435,-0.78987 l -1.29837,0.076 -1.2148,-0.97274 c -0.66815,-0.535 -1.268869,-1.01457 -1.334939,-1.06571 -0.37526,-0.2904 -0.0709,-1.59209 0.484759,-2.07306 0.75214,-0.65108 0.58679,-1.70429 -0.26756,-1.70429 -0.988949,0 -1.497969,-0.50807 -1.837919,-1.8345 -0.18524,-0.72275 -0.4263,-1.25877 -0.53569,-1.19116 -0.1094,0.0676 -0.26898,-0.0979 -0.35463,-0.36772 -0.0857,-0.26985 -0.47208,-0.65854 -0.85873,-0.86374 -0.76457,-0.40576 -2.26841,-2.55968 -2.04243,-2.92533 0.0768,-0.12424 0.0558,-0.3614 -0.0465,-0.52704 -0.10304,-0.16672 -0.51795,0.60901 -0.92945,1.73769 l -0.74332,2.03885 1.37685,1.45926 c 0.88364,0.93653 1.96923,1.73758 3.03051,2.23622 0.9095,0.42732 1.65364,0.8672 1.65364,0.97751 0,0.1103 -0.18893,0.47029 -0.41985,0.79997 l -0.41985,0.59942 0.41985,0.64077 c 0.56121,0.85651 0.53193,2.41781 -0.0594,3.16962 l -0.47931,0.60933 -0.51289,-0.27429 c -0.28209,-0.15085 -0.78212,-0.58487 -1.11119,-0.96446 -0.32906,-0.3796 -0.56719,-0.52257 -0.52916,-0.31771 0.0437,0.23537 -0.18976,0.39029 -0.6342,0.42086 -0.85409,0.0588 -2.34369,0.64666 -2.8209,1.11332 -0.6576,0.64305 -1.58553,0.67811 -2.7701,0.10467 -0.63183,-0.30586 -1.49815,-0.55347 -1.92514,-0.55023 l -0.77637,0.006 0.60074,0.46236 0.60073,0.46237 -0.50006,1.0531 c -0.27504,0.57921 -0.58053,1.49959 -0.67887,2.0453 l -0.17881,0.99218 h -0.62782 c -0.93926,0 -1.44547,0.26289 -1.31587,0.68336 0.0636,0.20624 0.16888,0.54705 0.23402,0.75736 l 0.11842,0.38238 0.80553,-0.23102 0.80553,-0.23102 0.95576,1.16638 0.95576,1.16638 -0.33108,1.38011 c -0.1821,0.75905 -0.34336,2.30726 -0.35836,3.44046 l -0.0273,2.06035 -0.39688,-0.10824 c -1.33757,-0.3648 -2.11666,-0.42807 -2.11666,-0.1719 0,0.15537 0.50601,0.36317 1.12447,0.46179 1.69812,0.27078 3.52411,2.472781 2.05053,2.472781 -0.33817,0 -0.52917,0.17639 -0.52917,0.48868 0,0.26878 0.23812,0.76325 0.52917,1.09882 0.59577,0.68693 0.6971,1.55521 0.19843,1.7004 -1.74476,0.508 -3.36797,0.95683 -3.96477,1.09629 l -0.72363,0.1691 -0.24829,-0.65306 c -0.13656,-0.35918 -0.42129,-0.71944 -0.63273,-0.80058 -0.2556,-0.0981 -0.3393,-0.38367 -0.24975,-0.85212 l 0.13469,-0.7046 -1.3245,0.16815 -1.32451,0.16815 -0.1575,-0.41045 c -0.0866,-0.22574 -0.31007,-0.41148 -0.49654,-0.41274 -0.55384,-0.004 -2.3194,-1.835841 -2.37237,-2.461761 -0.0269,-0.31826 -0.12064,1.504941 -0.20825,4.051551 -0.0876,2.54662 -0.11078,4.783176 -0.0515,4.970126 0.0593,0.18696 0.62354,0.69477 1.25389,1.12846 0.63036,0.4337 1.88024,1.49803 2.77752,2.36518 l 1.63141,1.57664 0.12696,1.866046 c 0.0894,1.31362 0.007,2.16591 -0.2783,2.87891 -0.2229,0.55707 -0.539,2.25052 -0.70246,3.76322 -0.16346,1.51271 -0.46851,3.82193 -0.6779,5.13162 -0.45792,2.86422 -0.45762,2.85558 -0.0905,2.62869 0.20312,-0.12554 0.26368,0.23463 0.19844,1.18027 -0.0657,0.95205 -0.0144,1.2531 0.17069,1.00202 0.14552,-0.1974 0.52057,-0.49525 0.83345,-0.66187 l 0.56886,-0.30296 0.14865,0.38737 c 0.0818,0.21305 -0.0254,0.88069 -0.23813,1.48363 -0.21273,0.60294 -0.38679,1.26563 -0.38679,1.47264 0,0.44447 1.4754,1.12436 2.09072,0.96345 0.4069,-0.1064 1.34887,-1.96812 1.34887,-2.66591 0,-0.18038 0.11906,-0.32795 0.26458,-0.32795 0.14552,0 0.26458,-0.24287 0.26458,-0.53971 0,-0.74092 0.87101,-2.37627 1.65547,-3.10819 0.46764,-0.43633 0.61237,-0.79485 0.51869,-1.28492 -0.0763,-0.39911 0.0122,-0.76755 0.21431,-0.89248 l 0.34426,-0.21276 -0.70491,-0.83773 c -0.78078,-0.92791 -0.84305,-1.26278 -0.41109,-2.21082 0.30175,-0.66228 0.67582,-0.90914 2.45048,-1.61716 1.28546,-0.51284 1.94433,-0.51299 2.92686,-6.3e-4 0.42699,0.22267 0.94554,0.33992 1.15233,0.26057 0.22545,-0.0865 1.00448,0.46581 1.94569,1.37946 0.86334,0.83806 1.80265,1.63094 2.08736,1.76196 0.6047,0.27829 1.13232,1.91012 0.80608,2.49308 -0.14562,0.26021 -0.0728,0.55703 0.20838,0.84997 l 0.43214,0.45014 5.367289,-0.0313 5.367286,-0.0313 0.22712,-0.36721 c 0.12492,-0.20197 0.30046,-0.82582 0.39009,-1.38633 0.25027,-1.56513 1.1878,-3.8676 1.6465,-4.04361 0.60039,-0.2304 0.97682,0.0849 0.61782,0.51745 -0.16512,0.19895 -0.22382,0.48534 -0.13045,0.63641 0.0934,0.15108 0.0308,1.22483 -0.13897,2.38612 -0.39028,2.66918 -0.0431,4.9726 0.92251,6.12013 l 0.66414,0.78929 0.1622,-0.73862 c 0.28438,-1.29505 0.35476,-1.40009 0.93806,-1.40009 h 0.57209 l -0.20319,0.99219 c -0.11176,0.5457 -0.21663,1.46844 -0.23306,2.05052 l -0.0299,1.05834 0.92604,0.4626 c 0.50933,0.25444 1.17209,0.4628 1.47282,0.46303 l 0.54677,4.1e-4 z m -1.57184,-14.2407 c 0,-0.28789 1.22721,-0.95193 1.75928,-0.95193 0.24028,0 0.0502,0.53403 -0.32297,0.90715 -0.51599,0.51599 -1.43631,0.54469 -1.43631,0.0448 z m -2.66424,-0.31265 c -0.24592,-0.29632 -0.26925,-0.54355 -0.0796,-0.84414 0.50928,-0.80737 0.8918,-0.67221 0.8918,0.31511 0,1.02298 -0.26108,1.19304 -0.81216,0.52903 z m -26.259185,-2.26653 -0.48072,-0.52482 0.33142,-0.39934 0.33142,-0.39933 -0.34837,-0.21531 c -0.23063,-0.14253 -10e-4,-0.26957 0.67847,-0.37585 1.08407,-0.1695 1.82774,-0.11101 2.10425,0.16549 0.17035,0.17035 -1.69704,2.33601 -1.97981,2.29603 -0.0858,-0.0121 -0.37226,-0.25822 -0.63666,-0.54687 z m 13.445309,-3.11302 c -2.29639,-0.842936 -3.042709,-1.190046 -3.042709,-1.415176 0,-0.12023 -0.29345,-0.51205 -0.65212,-0.87072 -0.65962,-0.65962 -0.66254,-1.28552 -0.007,-1.53701 0.19698,-0.0756 1.28564,0.39113 2.419259,1.03715 2.20042,1.25397 2.24506,1.25703 4.30808,0.2957 0.83685,-0.38996 1.20354,-0.45593 1.27882,-0.23007 0.0581,0.17416 0.32525,0.31665 0.59377,0.31665 0.50075,0 1.31977,0.65512 1.31977,1.05566 0,0.41611 -1.71162,1.268406 -2.91042,1.449236 -0.65484,0.0988 -1.36922,0.22563 -1.5875,0.28189 -0.21828,0.0563 -0.99218,-0.11623 -1.71979,-0.38331 z m -13.225669,-5.839196 -0.4754,-0.52531 1.16199,-0.52721 c 1.46127,-0.662996 1.82346,-0.669206 1.82346,-0.0312 0,0.29091 -0.38041,0.74269 -0.89113,1.05833 -1.08587,0.6711 -1.03532,0.67031 -1.61892,0.0254 z m -1.3352,-1.49821 c -0.26907,-0.196746 -0.79717,-0.357726 -1.17354,-0.357726 -0.69212,0 -1.86038,-0.64839 -1.86038,-1.03253 0,-0.22983 3.62108,-1.08414 4.59526,-1.08414 0.39547,0 0.71793,0.23365 0.91285,0.66146 0.16576,0.3638 0.48252,0.66146 0.70393,0.66146 0.88141,0 0.3203,0.48173 -1.14317,0.98143 l -1.54572,0.527776 z m 14.041529,-1.664746 c -0.0845,-0.13678 0.26563,-0.58326 0.77813,-0.99219 0.84294,-0.67258 1.26675,-1.66954 0.70972,-1.66954 -0.12216,0 -0.36664,-0.3172 -0.54328,-0.70488 l -0.32116,-0.70488 0.31079,-0.75033 0.3108,-0.750331 h 1.91127 1.91127 l 0.45494,0.502721 0.45495,0.50271 -1.04693,0.96866 c -0.57581,0.53276 -1.2681,1.14048 -1.53842,1.3505 l -0.49149,0.38185 0.7658,0.63457 c 0.49513,0.41029 0.70847,0.78394 0.60361,1.05719 -0.239,0.62283 -0.57823,0.5209 -1.36054,-0.40882 l -0.69962,-0.83146 -0.85785,0.83146 c -0.9178,0.88957 -1.11093,0.97282 -1.35199,0.58277 z m 15.203706,-3.72752 c -0.65484,-0.3012 -1.42535,-0.86923 -1.71225,-1.26228 l -0.52162,-0.714641 0.65391,0.46485 c 0.35966,0.255671 0.9072,0.646741 1.21677,0.869051 0.89176,0.64042 1.9907,0.83848 3.23128,0.58238 1.49722,-0.30908 1.22541,-0.5256 -0.94136,-0.74987 -1.72214,-0.17825 -2.45589,-0.610591 -2.45589,-1.447071 0,-0.18189 1.13006,-0.55015 2.71197,-0.88377 2.99188,-0.63099 5.34073,-1.30388 4.64751,-1.33141 -0.50014,-0.0199 -3.45254,0.56831 -6.00286,1.19587 -1.05416,0.2594 -1.77943,0.32154 -1.93517,0.1658 -0.20407,-0.20407 -0.40436,-1.91953 -0.46815,-4.00963 -0.008,-0.27603 -0.11888,-0.23951 -0.4001,0.1323 l -0.38846,0.51359 0.004,-0.92605 c 0.002,-0.50932 0.15758,-1.28323 0.34588,-1.71979 l 0.34236,-0.79375 0.184,0.56792 c 0.10121,0.31235 0.1658,0.66953 0.14355,0.79375 -0.11619,0.64844 0.0953,0.88729 0.7857,0.88729 1.6869,0 3.999,-2.06375 3.999,-3.56945 0,-1.18106 -0.88963,-2.25138 -1.87129,-2.25138 -0.99482,0 -0.98102,-0.33399 0.0456,-1.10436 0.4511,-0.33849 1.13246,-0.94286 1.51413,-1.34304 1.29111,-1.35373 3.24493,-0.82052 5.4709,1.49303 2.42872,2.52428 3.42973,5.7323 2.74544,8.79853 -0.32282,1.4465 -1.94937,3.52297 -3.52646,4.501901 l -0.78102,0.48479 0.17741,-0.4623 c 0.0976,-0.25427 0.11378,-0.462301 0.036,-0.462301 -0.3916,0 -1.36265,0.656641 -1.88169,1.272431 l -0.58446,0.69342 -1.79679,0.0809 -1.79678,0.0809 z m 10.30921,-5.548791 c 0.0186,-0.3638 0.0396,-1.61489 0.0467,-2.78019 l 0.0129,-2.11874 -0.65551,-1.48221 c -0.40114,-0.90706 -1.02348,-1.76288 -1.60381,-2.20552 l -0.94831,-0.72331 -1.98308,-0.0414 -1.98307,-0.0414 -0.45726,0.45672 c -0.61849,0.61777 -0.37212,0.77734 0.71764,0.4648 2.05655,-0.58981 4.02358,-0.0597 5.03166,1.35601 0.73233,1.02846 1.44359,5.21391 1.13541,6.68139 l -0.23001,1.09525 -1.05819,0.16089 -1.05819,0.16089 1.01002,0.0375 1.01002,0.0375 -0.17194,0.59531 -0.17193,0.59531 0.6616,-0.79375 c 0.36389,-0.43656 0.67681,-1.0914 0.6954,-1.4552 z m -32.798785,5.423961 c 0,-0.0728 0.0595,-0.1323 0.13229,-0.1323 0.0728,0 0.1323,0.0595 0.1323,0.1323 0,0.0728 -0.0595,0.13229 -0.1323,0.13229 -0.0728,0 -0.13229,-0.0595 -0.13229,-0.13229 z m 28.575025,-0.26459 c 0,-0.0728 0.0595,-0.13229 0.13229,-0.13229 0.0728,0 0.13229,0.0595 0.13229,0.13229 0,0.0728 -0.0595,0.13229 -0.13229,0.13229 -0.0728,0 -0.13229,-0.0595 -0.13229,-0.13229 z m -27.252075,-0.26458 c 0,-0.0728 0.0595,-0.13229 0.13229,-0.13229 0.0728,0 0.13229,0.0595 0.13229,0.13229 0,0.0728 -0.0595,0.13229 -0.13229,0.13229 -0.0728,0 -0.13229,-0.0595 -0.13229,-0.13229 z m -4.10104,-0.42384 c -0.96772,-0.29726 -1.87677,-0.962591 -1.63945,-1.199911 0.23031,-0.23031 4.68216,0.971971 4.68216,1.264481 0,0.29348 -2.0164,0.25069 -3.04271,-0.0646 z m 3.30729,-0.762151 c -0.3638,-0.11999 -1.886,-0.54289 -3.38266,-0.93977 -1.82949,-0.48514 -2.80487,-0.87796 -2.97656,-1.19876 -0.33487,-0.6257 -0.32336,-1.93732 0.0326,-3.70896 l 0.28792,-1.43319 1.07771,-0.0637 c 1.38743,-0.082 2.17812,-0.61471 2.84097,-1.914 0.94481,-1.85198 0.5844,-3.71084 -0.71949,-3.71084 h -0.70427 l 1.13929,-0.83784 1.1393,-0.83785 h 1.14769 c 1.1941,0 1.96963,0.41537 1.96963,1.05494 0,0.20503 0.17862,0.44132 0.39692,0.52509 0.5485,0.21048 2.53869,2.75126 2.3695,3.02502 -0.218,0.35274 -0.87802,-0.0169 -1.06129,-0.59431 -0.38108,-1.20068 -4.88013,-3.35339 -4.88013,-2.33505 0,0.14552 0.27435,0.26459 0.60966,0.26459 0.54547,0 2.16956,0.91613 3.42243,1.93056 0.76897,0.62262 1.25958,2.19219 1.25958,4.02968 0,1.09523 0.0984,1.68308 0.26458,1.58038 0.14552,-0.0899 0.26459,-0.68254 0.26459,-1.31689 0,-0.63435 0.086,-1.37147 0.19117,-1.63803 l 0.19118,-0.48466 0.143969,0.79375 c 0.22075,1.21703 -0.162889,4.47421 -0.647199,5.49482 -0.23805,0.50166 -0.79862,1.28625 -1.2457,1.74354 -0.84625,0.86556 -1.74334,1.029291 -3.13134,0.57149 z m 19.579155,-0.93068 c 0,-0.0728 0.0595,-0.13229 0.13229,-0.13229 0.0728,0 0.1323,0.0595 0.1323,0.13229 0,0.0728 -0.0595,0.13229 -0.1323,0.13229 -0.0728,0 -0.13229,-0.0595 -0.13229,-0.13229 z m -0.18891,-2.11666 c 0.002,-0.72761 0.0534,-0.99386 0.11419,-0.59168 0.0608,0.40218 0.0592,0.9975 -0.004,1.32292 -0.0628,0.32542 -0.11256,-0.004 -0.11058,-0.73124 z M 60.328103,119.80287 c -0.0816,-1.34607 -0.26516,-2.56646 -0.40778,-2.71198 -0.16961,-0.17305 -0.22244,0.56073 -0.1527,2.1211 0.094,2.10356 0.2815,3.03827 0.60944,3.03827 0.0547,0 0.0327,-1.10132 -0.049,-2.44739 z m 37.555211,-1.77409 c 0.25466,-0.007 0.46302,-0.19044 0.46302,-0.40872 0,-0.29408 -0.32554,-0.40242 -1.25677,-0.41828 -7.33077,-0.12483 -10.751299,-0.27906 -11.171049,-0.5037 -0.63968,-0.34235 -1.59509,-0.3478 -1.59509,-0.009 0,0.26741 0.17576,0.32118 2.64583,0.8094 0.80036,0.1582 1.93146,0.38763 2.51354,0.50984 0.582079,0.12221 2.606149,0.1795 4.497919,0.12731 1.89177,-0.0522 3.64794,-0.10022 3.9026,-0.10674 z m 1.52135,-0.40872 c 0,-0.0728 -0.0595,-0.1323 -0.13229,-0.1323 -0.0728,0 -0.13229,0.0595 -0.13229,0.1323 0,0.0728 0.0595,0.13229 0.13229,0.13229 0.0728,0 0.13229,-0.0595 0.13229,-0.13229 z m -29.104159,-1.05834 c 0,-0.0728 -0.0595,-0.13229 -0.13229,-0.13229 -0.0728,0 -0.13229,0.0595 -0.13229,0.13229 0,0.0728 0.0595,0.13229 0.13229,0.13229 0.0728,0 0.13229,-0.0595 0.13229,-0.13229 z m 55.616225,-1.16075 c 0.34548,-0.13136 1.57605,-0.32205 2.7346,-0.42378 2.44169,-0.21439 5.46292,-0.81683 6.60437,-1.31693 0.43657,-0.19127 1.56766,-0.62303 2.51355,-0.95947 0.94588,-0.33644 1.75972,-0.70743 1.80853,-0.82443 0.0488,-0.117 0.19848,-0.14491 0.3326,-0.062 0.13412,0.0829 0.31502,-0.0347 0.402,-0.26141 0.087,-0.22667 0.25398,-0.3529 0.37111,-0.28051 0.40061,0.24759 3.69069,-1.57503 5.4465,-3.01722 0.16002,-0.13144 0.75533,-0.49475 1.32291,-0.80737 l 1.03197,-0.56839 -0.79375,0.1654 c -0.43656,0.091 -1.01461,0.36449 -1.28455,0.60781 -0.26994,0.24332 -0.53658,0.4159 -0.59253,0.3835 -0.12325,-0.0714 -0.43811,0.0327 -3.15,1.04136 -1.16417,0.43298 -2.5744,1.01414 -3.13386,1.29146 -0.55945,0.27732 -1.27978,0.50421 -1.60073,0.50421 -0.32094,0 -0.72641,0.14288 -0.90104,0.3175 -0.17462,0.17463 -0.3175,0.23256 -0.3175,0.12874 0,-0.10382 -0.44648,0.005 -0.99218,0.24172 -0.54571,0.23676 -1.40891,0.48177 -1.91823,0.54447 -1.18549,0.14594 -3.95637,0.85899 -4.52912,1.16552 -0.24224,0.12964 -0.84034,0.28535 -1.3291,0.34601 -2.15188,0.26707 -6.04803,1.6046 -6.04803,2.07626 0,0.30097 3.04371,0.0797 4.02248,-0.29243 z m 4.70877,-2.27883 c 0,-0.0728 0.0595,-0.13229 0.13229,-0.13229 0.0728,0 0.13229,0.0595 0.13229,0.13229 0,0.0728 -0.0595,0.13229 -0.13229,0.13229 -0.0728,0 -0.13229,-0.0595 -0.13229,-0.13229 z m 18.17502,-6.14653 c -0.0671,-0.25743 -0.12638,-0.11087 -0.13178,0.3257 -0.005,0.43656 0.0495,0.64718 0.12197,0.46805 0.0725,-0.17913 0.0769,-0.53632 0.01,-0.79375 z m -7.21345,-4.03993 c 1.47088,-3.615596 2.86837,-8.163606 2.65735,-8.648116 -0.11498,-0.264 -0.2597,-0.83719 -0.32159,-1.273746 -0.1415,-0.99811 -0.27659,-1.13921 -0.47957,-0.50089 -0.35985,1.131636 -1.29732,3.050236 -1.62214,3.319806 -0.19124,0.15872 -0.34771,0.78994 -0.34771,1.40271 v 1.11413 l -0.7276,0.008 c -1.16946,0.0125 -2.76561,0.5415 -3.94904,1.30885 l -1.09983,0.713136 1.12654,0.74619 c 0.61959,0.4104 1.71094,1.44893 2.42521,2.30783 0.71428,0.8589 1.3752,1.48525 1.46871,1.39188 0.0935,-0.0934 0.48487,-0.94365 0.86967,-1.88954 z m -1.27019,-9.326556 0.44455,-0.859896 -0.40916,0.3394 c -0.37137,0.308036 -0.82246,1.380386 -0.58067,1.380386 0.0554,0 0.30077,-0.38695 0.54528,-0.85989 z m -0.16638,-2.315106 c 0,-0.29104 -0.0457,-0.52916 -0.10144,-0.52916 -0.0558,0 -0.1637,0.23812 -0.23981,0.52916 -0.0761,0.29105 -0.0305,0.52917 0.10143,0.52917 0.1319,0 0.23982,-0.23812 0.23982,-0.52917 z M 118.89563,72.332217 c -0.097,-0.097 -0.25576,-0.097 -0.35277,0 -0.097,0.097 -0.0176,0.17639 0.17639,0.17639 0.19402,0 0.2734,-0.0794 0.17638,-0.17639 z m 1.32292,-0.26458 c -0.097,-0.097 -0.25576,-0.097 -0.35278,0 -0.097,0.097 -0.0176,0.17639 0.17639,0.17639 0.19403,0 0.27341,-0.0794 0.17639,-0.17639 z m 4.30938,-0.49987 c 0.64816,-0.0755 1.24347,-0.20702 1.32291,-0.29226 0.18743,-0.20109 -3.01905,0.13774 -4.22118,0.44605 l -0.92604,0.2375 1.32292,-0.12701 c 0.7276,-0.0699 1.85323,-0.18878 2.50139,-0.26428 z m 2.92257,-0.51437 c 0,-0.0728 -0.0595,-0.13229 -0.1323,-0.13229 -0.0728,0 -0.13229,0.0595 -0.13229,0.13229 0,0.0728 0.0595,0.13229 0.13229,0.13229 0.0728,0 0.1323,-0.0595 0.1323,-0.13229 z m -10.28501,-1.91823 0.36313,-0.46302 -0.46302,0.36313 c -0.44073,0.34564 -0.58089,0.56291 -0.36313,0.56291 0.055,0 0.26331,-0.20836 0.46302,-0.46302 z m 1.20098,-0.7717 c -0.097,-0.097 -0.25577,-0.097 -0.35278,0 -0.097,0.097 -0.0176,0.17639 0.17639,0.17639 0.19403,0 0.2734,-0.0794 0.17639,-0.17639 z m 2.33715,-1.32896 c 0.58208,-0.33272 0.96508,-0.60638 0.8511,-0.60813 -0.28325,-0.004 -2.83547,1.29915 -2.83547,1.44818 0,0.17719 0.78928,-0.15694 1.98437,-0.84005 z m -35.586445,0.0825 c 0,-0.0549 -0.20836,-0.2633 -0.46302,-0.46302 l -0.46303,-0.36313 0.36313,0.46303 c 0.34564,0.44072 0.56292,0.58088 0.56292,0.36312 z m -0.79375,-1.05829 c 0,-0.0549 -0.20836,-0.2633 -0.46302,-0.46302 l -0.46303,-0.36313 0.36313,0.46302 c 0.34564,0.44073 0.56292,0.58089 0.56292,0.36313 z m 30.956235,-0.29698 c 0,-0.0728 -0.0595,-0.13229 -0.13229,-0.13229 -0.0728,0 -0.13229,0.0595 -0.13229,0.13229 0,0.0728 0.0595,0.13229 0.13229,0.13229 0.0728,0 0.13229,-0.0595 0.13229,-0.13229 z m 1.35667,-0.8599 0.36312,-0.46302 -0.52916,0.38815 c -0.29104,0.21349 -0.57878,0.42185 -0.63941,0.46302 -0.0606,0.0412 0.0141,0.0749 0.16604,0.0749 0.15195,0 0.43969,-0.20836 0.63941,-0.46302 z m 1.155,-0.59228 c 0.0927,-0.14998 -0.0135,-0.19434 -0.24897,-0.10398 -0.45837,0.17589 -0.54223,0.36553 -0.16165,0.36553 0.13694,0 0.32171,-0.1177 0.41062,-0.26155 z m 0.66333,-0.39991 c 0,-0.0728 -0.0595,-0.13229 -0.13229,-0.13229 -0.0728,0 -0.13229,0.0595 -0.13229,0.13229 0,0.0728 0.0595,0.1323 0.13229,0.1323 0.0728,0 0.13229,-0.0595 0.13229,-0.1323 z m 20.53827,136.205273 c -0.083,-0.083 -0.0876,-0.25342 -0.0102,-0.37865 0.18575,-0.30054 0.90323,-0.29372 0.90323,0.009 0,0.29204 -0.6865,0.57652 -0.89298,0.37005 z m -94.004235,-1.31188 c 0.097,-0.097 0.25577,-0.097 0.35278,0 0.097,0.097 0.0176,0.17639 -0.17639,0.17639 -0.19403,0 -0.2734,-0.0794 -0.17639,-0.17639 z m -1.67569,-1.5434 c 0,-0.21828 0.11532,-0.39688 0.25628,-0.39688 0.14095,0 0.18775,0.1786 0.10398,0.39688 -0.0838,0.21828 -0.19909,0.39687 -0.25628,0.39687 -0.0572,0 -0.10398,-0.17859 -0.10398,-0.39687 z m 0.52917,0.26458 c 0,-0.0728 0.0595,-0.13229 0.13229,-0.13229 0.0728,0 0.13229,0.0595 0.13229,0.13229 0,0.0728 -0.0595,0.13229 -0.13229,0.13229 -0.0728,0 -0.13229,-0.0595 -0.13229,-0.13229 z m 0.26458,-0.52917 c 0,-0.0728 0.0595,-0.13229 0.13229,-0.13229 0.0728,0 0.13229,0.0595 0.13229,0.13229 0,0.0728 -0.0595,0.13229 -0.13229,0.13229 -0.0728,0 -0.13229,-0.0595 -0.13229,-0.13229 z m 24.79525,-1.45933 c 0.20832,-0.79662 0.5386,-0.87226 0.5386,-0.12334 0,0.36115 -0.15256,0.65663 -0.33903,0.65663 -0.20964,0 -0.28581,-0.20352 -0.19957,-0.53329 z m 57.622445,-0.78963 c -0.0899,-0.14552 0.0291,-0.26458 0.26459,-0.26458 0.23546,0 0.35452,0.11906 0.26458,0.26458 -0.0899,0.14553 -0.209,0.26459 -0.26458,0.26459 -0.0556,0 -0.17465,-0.11906 -0.26459,-0.26459 z m -83.161985,-1.4552 c 0.0113,-0.87313 -0.0684,-2.46616 -0.17704,-3.54007 -0.14288,-1.41177 -0.11593,-1.9021 0.0973,-1.77033 0.16219,0.10024 0.29489,0.47762 0.29489,0.83864 0,0.36101 0.23977,1.12637 0.53283,1.70081 0.61793,1.21124 0.5083,2.66804 -0.27923,3.71066 l -0.4893,0.64779 z m 25.41235,0.45383 c -0.44478,-0.94247 -0.41336,-1.11529 0.20277,-1.11529 h 0.52917 v 0.77813 c 0,1.03713 -0.32989,1.18909 -0.73194,0.33716 z m 78.298035,0.12806 -0.3537,-0.42687 0.39222,-0.55996 c 0.47345,-0.67596 0.67214,-0.4013 0.46641,0.64474 l -0.15124,0.76897 z m -77.786205,-1.69462 c -0.0861,-0.61778 -1.38868,-2.33966 -2.62781,-3.47381 l -1.25312,-1.14696 1.18765,0.168 c 1.92954,0.27294 3.04953,1.74817 2.84358,3.74552 -0.0582,0.56443 -0.12583,0.88269 -0.1503,0.70725 z m 56.708645,-2.98831 c -0.0899,-0.14553 0.0291,-0.26459 0.26458,-0.26459 0.23546,0 0.35452,0.11906 0.26458,0.26459 -0.0899,0.14552 -0.20899,0.26458 -0.26458,0.26458 -0.0556,0 -0.17465,-0.11906 -0.26458,-0.26458 z m -82.529335,-2.08324 c -0.51901,-0.83977 1.95467,-2.94819 3.688178,-3.14358 l 1.16508,-0.13132 -0.30969,0.82044 -0.30968,0.82044 -1.435418,0.32123 c -0.87337,0.19545 -1.66755,0.57157 -2.02823,0.96055 -0.37657,0.40612 -0.65753,0.5346 -0.77024,0.35224 z m 99.550545,-1.98001 0.0917,-1.15283 -0.72077,-0.56696 c -0.39643,-0.31183 -0.87556,-0.56696 -1.06475,-0.56696 -0.18918,0 -0.67914,-0.12744 -1.08879,-0.28319 l -0.74483,-0.28319 0.398,-0.22274 c 0.46706,-0.26139 3.00978,0.25461 3.45664,0.70146 0.16705,0.16706 0.35365,1.02903 0.41465,1.91549 l 0.11091,1.61175 h -0.47222 -0.47221 z m -87.532667,-2.26755 c 0,-0.76888 3.18873,-2.1257 4.13886,-1.7611 l 0.45301,0.17384 -0.4042,0.4042 c -0.22231,0.22231 -0.95529,0.43531 -1.62884,0.47333 -0.68742,0.0388 -1.43936,0.26346 -1.71412,0.51212 -0.54728,0.49528 -0.84471,0.56486 -0.84471,0.19761 z m 8.178982,-0.47684 c -0.15102,-0.39722 -0.41596,-0.81212 -0.58876,-0.92199 -0.19616,-0.12473 -0.0941,-0.20129 0.27183,-0.20382 0.59415,-0.004 1.13379,0.6783 1.13379,1.43376 0,0.6704 -0.51932,0.47462 -0.81686,-0.30795 z m 69.343935,-1.52674 c 0,-0.0728 0.0595,-0.13229 0.13229,-0.13229 0.0728,0 0.13229,0.0595 0.13229,0.13229 0,0.0728 -0.0595,0.13229 -0.13229,0.13229 -0.0728,0 -0.13229,-0.0595 -0.13229,-0.13229 z m 24.15977,-99.672443 c 0.24556,-0.39507 0.44648,-0.88723 0.44648,-1.0937 0,-0.20646 0.47548,-0.80496 1.05662,-1.32999 1.40744,-1.27153 2.11861,-2.65873 2.11739,-4.13014 -0.002,-2.11413 -1.05876,-3.24719 -3.39284,-3.63695 -1.09694,-0.18317 -0.56585,-0.6075 0.579,-0.46261 2.08,0.26324 3.19388,1.37978 3.62046,3.62912 l 0.2635,1.38946 -0.84662,1.19218 c -0.46564,0.65569 -1.17288,1.66842 -1.57163,2.2505 -0.39876,0.58209 -1.17363,1.47506 -1.72193,1.98438 l -0.99691,0.92604 z"
       id="path1" /></g></svg>
