<?xml version="1.0" encoding="utf-8"?>
<!-- Generator: Adobe Illustrator 27.7.0, SVG Export Plug-In . SVG Version: 6.00 Build 0)  -->
<svg version="1.1"
	 id="svg1" xmlns:sodipodi="http://sodipodi.sourceforge.net/DTD/sodipodi-0.dtd" xmlns:svg="http://www.w3.org/2000/svg" xmlns:inkscape="http://www.inkscape.org/namespaces/inkscape"
	 xmlns="http://www.w3.org/2000/svg" xmlns:xlink="http://www.w3.org/1999/xlink" x="0px" y="0px" viewBox="0 0 491 475"
	 style="enable-background:new 0 0 491 475;" xml:space="preserve">
<sodipodi:namedview  bordercolor="#000000" borderopacity="0.25" id="namedview1" inkscape:deskcolor="#d1d1d1" inkscape:document-units="mm" inkscape:pagecheckerboard="0" inkscape:pageopacity="0.0" inkscape:showpageshadow="2" pagecolor="#ffffff">
	</sodipodi:namedview>
<g id="layer1" inkscape:groupmode="layer" inkscape:label="Layer 1">
	<path id="path1" d="M324.7,467.6c-0.4-0.6,1.7-2.3,2.9-2.3c1,0,0.3,2.1-0.8,2.5C325.3,468.4,325.2,468.4,324.7,467.6z M288.1,464
		c-0.7-0.2-1.3-0.8-1.3-1.3c0-0.5-0.5-1.4-1.1-1.9c-0.6-0.5-1.1-1.6-1.1-2.4v-1.5l1.7,0.5c0.9,0.3,3,0.8,4.7,1.3
		c1.6,0.4,3.9,1.6,4.9,2.6s2.2,1.6,2.5,1.3c0.3-0.3,0.3,0,0.1,0.7l-0.5,1.3l-4.2-0.1C291.3,464.4,288.8,464.2,288.1,464L288.1,464z
		 M328.3,462.6c-0.2-0.6-0.2-1.4,0-1.6c0.8-0.8,2.8,0.4,2.8,1.6C331,464.1,328.9,464.1,328.3,462.6L328.3,462.6z M296.2,460.8
		c-0.3-0.4-0.1-0.8,0.3-0.8c0.4,0,1,0.3,1.2,0.8c0.3,0.4,0.1,0.8-0.3,0.8C297,461.5,296.4,461.2,296.2,460.8z M324.7,460
		c0.3-0.4,0.9-0.8,1.5-0.8c0.6,0,1.1,0.3,1.1,0.8s-0.7,0.8-1.5,0.8S324.4,460.4,324.7,460z M345.3,458.4c0-0.5,0.5-1.6,1.1-2.4
		c1.4-1.9,1.4-4.3-0.1-6.9l-1.2-2.1l0.9-3.4l0.9-3.4l1.5,1.9l1.5,1.9l-0.5,5.1c-0.5,4.9-1.8,8.9-3.4,9.9
		C345.6,459.2,345.3,458.9,345.3,458.4L345.3,458.4z M101.6,444.5c-1.4-0.2-3.4-0.8-4.4-1.5l-1.8-1.2l2.3-1c3.5-1.5,5.3-1,5.9,1.4
		l0.6,2.1l6.4-3.2c3.5-1.7,7.4-3.9,8.6-4.8c3.1-2.3,6.6-3.2,12.9-3.6l5.4-0.3l2.8-2.2c4.3-3.4,4.8-3.7,5.3-3.1
		c0.9,0.9-3.3,6.4-6.5,8.8c-1.8,1.3-4.8,2.6-7.3,3c-2.3,0.5-6.8,1.6-9.9,2.6c-5,1.6-15.4,3.6-17,3.3
		C104.4,444.9,103,444.7,101.6,444.5L101.6,444.5z M260.5,438.3c-4.3-0.3-9.9-0.7-12.4-1c-2.5-0.3-9.7-0.8-16.1-1.3
		s-12.9-1.1-14.4-1.4c-1.8-0.4-2.9-0.3-3,0.2c-0.2,0.7-18.2-3.8-21.9-5.5c-0.8-0.4-4.3-1.6-7.7-2.6c-8.2-2.5-15.8-6-16.4-7.5
		c-0.2-0.6-0.9-1.2-1.5-1.2c-1.7,0-6.2-7.6-7-11.8c-0.4-2.1-1.7-6.5-3-9.7c-1.2-3.2-2.5-7.4-2.7-9.2c-0.3-1.9-1.4-6.1-2.6-9.4
		c-1.2-3.3-3.2-10-4.5-15c-1.3-4.9-2.8-10-3.3-11.2c-0.5-1.2-1.7-5.5-2.6-9.4c-0.9-3.9-2.7-11-3.8-15.7c-1.2-4.7-2.5-10.8-2.9-13.5
		c-0.4-2.7-1-5.7-1.2-6.8c-0.2-1-0.7-3.4-1.1-5.3c-0.4-1.9-1.4-6.6-2.3-10.5c-0.9-3.9-2-9.7-2.6-12.8c-0.5-3.1-1.8-9.5-2.9-14.2
		c-1-4.7-2.4-11.8-3.1-15.7c-0.7-3.9-1.6-8.1-2-9.4c-1.1-3.2-2.8-11-4-18.4c-0.6-3.5-1.6-9.2-2.2-12.7c-1.2-6.2-1.8-12.6-2.2-21.2
		l-0.2-4.3l1.2-0.1c0.6,0,1.6,0,2.1,0c0.5,0.1,1.5-1.1,2.1-2.5l1.1-2.7l7.7-3.7c7.4-3.5,14.7-6.2,19.9-7.2c1.3-0.3,2.4-0.7,2.4-1
		c0-1.2-3.8-5.5-13.4-15.1c-6.4-6.4-10.6-11.3-11.5-13.3l-1.5-3.3l0.5-3.5c0.5-3.5,4.3-11.2,8.9-17.9c15.1-22.3,22.1-30.6,26.6-31.2
		c3.2-0.4,4-1.2,1.4-1.2c-2.2,0-2.6-0.8-0.9-2.2c0.6-0.5,1.1-1.2,1.1-1.5c0-0.3-1.5-2.9-3.4-5.7l-3.4-5.1v-3.2v-3.2l2-1.6l2-1.6
		l0.1-3.4c0.1-2.3,0.6-3.9,1.7-5l1.6-1.6l1,0.8l1,0.8l1.9-3.9c2.4-4.8,9.1-14.2,14.8-20.8c2.3-2.7,5-5.8,5.8-6.9s2.7-3.3,4-4.8
		l2.4-2.8l3.3,1.7c6,3.2,15.1,13.6,22,25.2c3.4,5.8,6.7,11.9,7.2,13.5c1,3.4,0.8,3.3,8.3,1.2l5.2-1.5h10.2h10.2l2.7,1.8
		c1.5,1,3.2,1.9,3.9,2.1c0.7,0.1,2.9-2.1,5.7-5.8c4.8-6.3,13.3-14.3,20.2-19c2.3-1.5,5.3-3.7,6.8-4.8c1.5-1.1,4-2.6,5.6-3.3
		c1.6-0.7,4-1.7,5.2-2.2c3.2-1.4,5.6-1.8,6-1.1c0.2,0.3,0,0.8-0.4,1.1c-0.5,0.3-0.2,1,0.7,1.7c4.3,3.7,8.5,16.3,8.7,26.4
		c0.1,3.5,0.2,7.4,0.3,8.6l0.1,2.2l1.4-1.3l1.4-1.3l1.5,0.8c2.4,1.3,3.3,3.7,3.2,8.8c-0.1,5,0.5,5.7,3.3,3.6c2-1.5,6-1.5,6.6,0
		c1.3,3.4-1.1,11-4.8,14.9c-0.8,0.8-1.7,2.4-2.2,3.5l-0.8,2l5.9,6.1l5.9,6.1l1.2-3c3.4-8.5,21-21.1,35.1-25.1
		c5.8-1.6,13.1-2.3,13.7-1.3c0.3,0.5-0.3,0.8-1.8,0.8c-4.1,0-18,4-22.7,6.6c-5.8,3.1-14.1,10.2-14.1,11.9c0,0.5-1.3,2.3-2.9,3.9
		c-1.6,1.6-3.6,4.4-4.5,6.2l-1.6,3.3l1.1,1.5c3.1,4.2,6.4,9.6,7.7,12.4l1.4,3.2l0.4-1.4c0.2-0.8,1.3-1.9,2.4-2.5l2-1.1l1.5,1.3
		l1.5,1.3l4.9-3.2c2.7-1.8,6-3.8,7.3-4.4c2.6-1.3,3.7-3.8,1.7-3.8c-0.6,0-1.2-0.5-1.2-1.1c0-1.6,0.7-1.4,2.7,0.7
		c1,1,2.1,1.9,2.6,1.9c0.5,0,0.7,0.5,0.5,1.1c-0.2,0.6,0.3,1.7,1.1,2.4l1.5,1.3l2.7-2.6l2.7-2.6l-1.4,2.2c-0.7,1.2-2.9,4.3-4.7,6.7
		c-14.9,20.2-20.2,30.5-21.4,42l-0.2,2.2l2.6,0c7.8,0.1,9.1,0.4,10.9,2.1l1.8,1.8l-0.4,10.4c-0.2,5.7-0.7,12.2-1.1,14.5
		c-0.4,2.3-1.4,10-2.3,17.2s-1.9,13.7-2.3,14.5c-0.4,0.7-0.6,1.6-0.3,2c0.5,0.9-0.8,12.7-2.3,20.7c-0.6,3.3-1.4,8.4-1.8,11.2
		c-0.8,6.7-2.6,16.5-4.2,23.2c-0.7,2.9-1.3,7-1.5,9c-0.3,5-1.1,9.6-2.3,14.2c-1.3,4.8-3.3,13.4-3.8,16.9c-0.2,1.4-0.7,4.3-1.1,6.4
		c-0.4,2.1-1.1,6.3-1.5,9.4c-0.4,3.1-1.4,8.7-2.2,12.4c-1.3,6.1-2.4,11.4-5.8,28.9c-1.7,8.4-3.1,11.8-5.2,12.2c-1,0.2-2,0.1-2.4-0.2
		c-0.3-0.3-2.7-1.8-5.3-3.2l-4.7-2.7l-3.3,0.6c-1.8,0.3-3.5,0.5-3.7,0.3c-0.2-0.2-0.8,0.4-1.3,1.2s-1.5,1.6-2.2,1.6
		c-0.7,0-2,0.6-2.9,1.3l-1.7,1.3l1.3,3.9c1.8,5.5,1.4,6.5-2.7,7.1c-3.6,0.5-6.6,1.8-7.6,3.2c-0.7,1,0.1,8.5,1,10.2
		c0.4,0.8,0,1.8-1.3,3.1l-1.9,2l1.9,1.9c1.1,1.1,2.3,2.6,2.7,3.4l0.8,1.5l-1.3,0.4c-0.7,0.2-3.9,1.6-7.1,3.1l-5.7,2.7l-2.4-0.5
		l-2.4-0.5l-1.7,1.9c-1,1-4.2,2.7-7.2,3.7c-3,1-6.1,2.5-6.9,3.4c-0.8,0.8-2,1.4-2.7,1.4C269,438.9,264.9,438.6,260.5,438.3
		L260.5,438.3z M252.2,415.4c1.9-0.3,6.7-2.3,11.2-4.7l8-4.2l8.2-7.5c12-11,18.4-17.3,18.4-18.2c0-0.4-2.1-2.8-4.6-5.2
		c-2.5-2.4-6.5-6.4-8.8-8.8l-4.2-4.4l-5.6,7.4c-3.1,4-6.8,8.6-8.2,10.1c-4.4,4.6-10.5,11.8-10.5,12.4c0,0.3,1.3,1.7,2.8,3
		c3.2,2.9,2.3,3.3-2.2,1l-3.1-1.6l-3.1,3.4c-1.7,1.9-5,5.6-7.4,8.3l-4.3,4.9l3.5,2.7c2.2,1.7,4.1,2.5,5.1,2.3
		C248.2,416,250.4,415.7,252.2,415.4L252.2,415.4z M218.1,408.8c-2.4-2.6-4.9-5.7-5.7-7c-0.8-1.3-2.2-2.8-3.3-3.3
		c-1-0.6-1.9-1.4-1.9-1.9c0-0.5-1-2.2-2.2-3.8c-3.7-4.9-11.5-16.7-16.1-24.7c-5.4-9.2-5.3-9.1-6.7-7.9l-1.1,0.9l-1.7-3.5l-1.7-3.5
		l0.9-1.4l0.9-1.4l-6.9-13.9l-6.9-13.9l-1.7-0.1c-1.8-0.1-2.4-1.7-2.3-5.7c0-1.2-0.8-4.6-2-7.5c-1.1-2.9-3.7-11.8-5.8-19.9
		c-3.5-13.4-4.5-17.8-7.7-33.5c-1.1-5.4-1.8-17.8-1.1-18.5c0.2-0.2,0.8,2.8,1.3,6.6c0.9,6.9,4.1,18.7,5.3,19.5
		c0.6,0.4,3.2-3.1,10.2-13.5c1.4-2.1,3.1-4.7,3.8-5.9l1.2-2.1l-2.5-10.7c-1.4-5.9-2.7-10.6-3-10.4c-0.3,0.2-2.7,0-5.3-0.4l-4.8-0.7
		l-3.7-4c-3.8-4-6.4-9.8-6.4-14.3c0-1.1-0.5-2.2-1.1-2.4c-0.6-0.2-1.3-1.9-1.6-3.7c-0.3-1.8-0.8-3.3-1.1-3.3c-0.3,0-1.2-0.2-1.8-0.5
		l-1.2-0.5l0.5,11.5c0.3,6.3,0.8,14.2,1.1,17.5c0.4,3.3,0.7,8,0.8,10.5c0.1,2.5,0.6,7.9,1.2,12c0.6,4.1,1.4,10.2,1.8,13.5
		c1.1,9.3,2.9,18.7,4.1,22.2c0.6,1.7,1.1,4,1.1,5c0,3.3,4.6,21.8,6.8,27.6c0.8,2.1,1.9,5.7,2.6,8c0.6,2.3,1.8,5.4,2.6,6.7
		c0.8,1.3,1.3,2.7,1.1,3.1c-0.5,0.8,4.5,12.5,8.2,19c1.6,2.9,3.6,6.6,4.4,8.2c1.3,2.8,6.3,11,11.4,18.5c4.7,7.1,20,23.9,21.8,23.9
		c0.3,0,3.2,2.7,6.5,6.1c5.2,5.2,9.2,8.1,11.4,8.2C222.1,413.5,220.5,411.4,218.1,408.8L218.1,408.8z M144.1,235.1
		c-0.3-1.4-0.4-2.7-0.2-2.9c0.8-0.8,1.2,0.6,1,3l-0.2,2.5L144.1,235.1z M143.5,229.8c0-0.6,0.2-0.8,0.5-0.5c0.3,0.3,0.3,0.7,0,1
		C143.8,230.6,143.5,230.3,143.5,229.8z M226.8,409.4c0-0.2-0.2-0.4-0.4-0.4c-0.2,0-0.4,0.2-0.4,0.4s0.2,0.4,0.4,0.4
		C226.6,409.8,226.8,409.6,226.8,409.4z M223.8,406.4c0-0.2-0.2-0.4-0.4-0.4c-0.2,0-0.4,0.2-0.4,0.4s0.2,0.4,0.4,0.4
		S223.8,406.6,223.8,406.4z M244.7,391.6l2.7-2.8l-2.6-2.5c-1.4-1.4-3.1-3.1-3.7-3.9c-0.6-0.8-2.9-3.5-5-6.1l-3.9-4.7l-2.4,3.8
		c-1.3,2.1-3.3,4.7-4.4,5.8c-1.1,1.1-2.7,3.1-3.6,4.3c-0.9,1.2-2.3,3-3.1,3.9l-1.5,1.7l7.1,7.3l7.1,7.3l5.3-5.6
		C239.6,396.9,243.2,393.1,244.7,391.6L244.7,391.6z M186.2,395.2c-3.1-3.1-5.7-5.6-5.8-5.6c-0.6,0,4.6,6,7.4,8.5
		C193,402.8,192.1,401,186.2,395.2L186.2,395.2z M185.8,387.8c-0.3-0.5-1.8-2.9-3.4-5.2c-2.8-4.2-3.7-6.3-2-4.5
		c1.1,1.1,2.1,1.2,2.1,0.2c0-0.7-5.4-8.9-8.4-12.8c-1.4-1.8-3.4-5.2-11.6-19.9c-6.4-11.3-8.1-15-10.3-22.1c-1.2-3.9-2.4-7.3-2.7-7.5
		c-0.3-0.2-2-5.1-3.9-10.9c-3.5-10.8-4.1-11.8-2.8-4.9c0.4,2.2,1.1,7.8,1.5,12.5l0.8,8.6l2.5,5.6c1.5,3.2,3,5.6,3.6,5.6
		c1.3,0,2,1.6,2,4.4c0,1.1,0.7,2.9,1.5,3.8c0.8,1,1.5,2.3,1.5,2.9s1.8,4.9,4,9.4c5.7,11.7,5.8,11.9,6.7,10.9
		c1.4-1.4,2.6-0.9,4.3,1.8c1.2,2,1.4,2.9,0.8,3.5c-0.5,0.5-0.8,1.2-0.8,1.7c0,0.8,12.2,15.9,13.8,17
		C186.3,389,186.4,388.9,185.8,387.8L185.8,387.8z M219.4,379.7c1.5-2.2,3.4-4.8,4.1-5.6c2.3-2.6,4.7-6.2,4.7-7.1
		c0-0.5-2.9-5.3-6.5-10.7c-3.6-5.4-7.6-11.5-8.9-13.6c-1.4-2.1-3.1-5-3.8-6.6c-0.7-1.5-1.6-2.8-1.9-2.8c-0.3,0-1.3,1.1-2.3,2.4
		c-0.9,1.3-4.8,5.6-8.5,9.4c-3.7,3.8-7,7.4-7.2,7.9c-0.5,0.9,8.1,14.6,11.6,18.5c0.9,1,4.1,5,7.1,8.7l5.5,6.9l1.6-1.7
		C215.9,384.5,217.9,382,219.4,379.7L219.4,379.7z M257.9,375.6c1.5-2.1,4.1-5.1,5.6-6.7c1.5-1.6,4.6-5.5,6.8-8.5l4-5.5l-3.7-4.3
		c-2-2.4-4.6-5.6-5.7-7.3c-1.1-1.6-3-4.3-4.2-5.9l-2.2-2.9l-1.8,2.9c-1,1.6-2.2,3.7-2.7,4.6c-0.5,1-1.8,2.7-2.8,3.9
		c-1,1.2-4.1,5.4-6.9,9.5c-2.8,4-5.8,8.4-6.8,9.7l-1.8,2.4l2.8,4c1.6,2.2,4.7,6.3,6.9,9.1l4.1,5.1l2.8-3.2
		C253.8,380.8,256.4,377.7,257.9,375.6L257.9,375.6z M311.5,362.9c7.3-15.6,7.4-15.9,12-29.4c1.6-4.6,3.4-9.5,4-10.9
		c1.3-2.9,4.1-11.9,4.6-15.1c0.2-1.3,0.9-3.9,1.5-5.7c1.3-3.9,3-10,4.4-15.5l1-3.9l-2.4-2.3l-2.4-2.3l-2,2.8
		c-1.1,1.6-2.3,3.7-2.7,4.7c-1.5,3.6-10,19.2-12.7,23.2c-1.5,2.3-3.7,6-4.9,8.2c-1.2,2.3-2.9,5.2-3.8,6.4l-1.7,2.3l1.3,1.8
		c2.1,2.8,8.3,14.4,8,14.7c-0.6,0.6-7.3-6.7-9.2-10l-2-3.4l-0.9,1c-0.5,0.5-4.6,6.4-9,13c-4.4,6.6-8.9,13-9.8,14.1
		c-1,1.2-1.8,2.5-1.8,3c0,0.5,4,4.9,8.8,9.8l8.8,8.9l3.7-4C306.7,371.8,309.3,367.8,311.5,362.9L311.5,362.9z M235.4,358.2
		c1.7-2.3,4.3-6.1,5.9-8.4c1.6-2.3,3.4-4.8,4-5.7c0.6-0.8,3.1-4.5,5.5-8.2l4.4-6.7l-2.5-3.5c-1.4-1.9-3.2-5-4.1-6.8
		c-0.9-1.8-2.1-3.8-2.6-4.4c-0.5-0.6-2.4-3.8-4.1-7.1c-1.7-3.3-3.8-7.1-4.6-8.5l-1.5-2.5l-1,0.8c-0.5,0.5-4.6,5.8-8.9,11.8
		c-4.4,6.1-9.5,13-11.4,15.4l-3.4,4.4l3.5,5.7c1.9,3.2,4.7,7.8,6.1,10.2c1.4,2.5,3.3,5.5,4.3,6.8c0.9,1.2,2.8,4.2,4.1,6.6
		c1.3,2.4,2.7,4.3,2.9,4.3C232.2,362.5,233.8,360.6,235.4,358.2z M283.9,342.9c8.3-11,14.9-20.8,14.9-22.1c0-0.5-1.2-2.6-2.6-4.7
		c-1.4-2.1-4.1-6.6-5.9-10c-1.8-3.4-4.1-7.5-5-9l-1.7-2.8l-1.8,2.7c-1,1.5-2.5,4.1-3.4,5.8s-3,5.3-4.8,8c-1.8,2.7-5.4,8.5-8.1,12.9
		l-4.9,8l3.2,4.5c5.6,8,11.8,15.8,12.5,15.8C276.7,352,280.1,347.9,283.9,342.9L283.9,342.9z M196.7,333.5c2.2-2.5,4.5-5.4,5.1-6.4
		l1-1.7l-3.5-6.4c-1.9-3.5-5.5-10.5-7.9-15.6c-2.5-5.1-4.8-9.2-5.2-9.2c-0.4,0-2.3,2.5-4.3,5.7c-2,3.1-5.2,7.8-7.2,10.3
		c-2,2.6-4,5.3-4.4,6.1l-0.8,1.4l7.3,14.7l7.3,14.7l4.2-4.5C190.7,340.2,194.5,336.1,196.7,333.5z M261.9,319.1
		c2.5-3.7,4.6-6.9,4.6-7.1c0-0.4,7.6-12.8,12-19.5l2.4-3.7l-1.3-1.9c-0.7-1.1-4.9-9.2-9.3-18.2l-8-16.2l-2.4,3.9
		c-1.3,2.1-4.1,6.9-6.2,10.6c-2.1,3.7-5.8,9.8-8.3,13.5c-8.6,13-8.5,12.4-3.7,20.6c10,17.2,14.6,24.8,15.1,24.8
		C257.1,325.8,259.4,322.8,261.9,319.1L261.9,319.1z M211.8,315.1c2.7-3.4,6.2-7.9,7.9-10s4-5.3,5.1-7s3.1-4.7,4.6-6.5l2.6-3.4
		l-1.1-2.7c-0.6-1.5-1.4-3.1-1.8-3.5c-0.8-1-8.3-19.4-11.6-28.3c-1.3-3.6-2.6-6.7-2.9-7c-0.2-0.2-1.5,1.6-2.7,4
		c-1.2,2.5-2.9,5.4-3.7,6.6c-0.8,1.2-2.9,4.8-4.7,8.1c-3.6,6.6-12.5,21.4-13.5,22.4c-0.6,0.7,3.3,8.7,12.7,25.7
		c2.3,4.2,4.2,7.7,4.3,7.7C207,321.3,209.2,318.5,211.8,315.1L211.8,315.1z M304.4,313.2c3-4.4,8.6-13.3,13.8-21.9
		c2.6-4.3,5-8,5.2-8.2c0.2-0.2,1.2-1.7,2-3.4c0.9-1.7,2.2-4.1,3-5.4c1-1.7,1.2-2.7,0.7-3.5c-0.4-0.6-3.3-4.9-6.5-9.6
		c-3.1-4.7-6.8-10.5-8.2-13c-1.4-2.5-2.9-5.1-3.4-5.9l-1-1.4l-2.3,4.8c-1.3,2.6-3.3,7.2-4.5,10c-2.2,5.3-8.5,17.8-14.1,28.1l-3,5.6
		l1.9,3.8c1,2.1,3.5,6.5,5.5,9.8c2,3.3,4.5,7.6,5.6,9.6c1.1,2,2.3,3.6,2.7,3.6C302.2,316,303.4,314.8,304.4,313.2L304.4,313.2z
		 M175.7,299.2c4.2-5.7,7.6-11.1,7.6-11.9s-1.3-4.3-3-7.7c-1.6-3.5-4-9.1-5.2-12.5c-3.3-9.4-4.7-12.9-5-13.2
		c-0.4-0.4-3.8,3.5-5.8,6.6c-0.9,1.4-3.5,5-5.7,7.9l-4,5.2l0.5,2.6c0.5,2.6,2.4,8.2,7.3,21.8c2.9,7.9,3.4,9.2,3.9,10.9
		c0.2,0.7,0.7,1.1,1.1,0.9C167.8,309.8,171.5,305,175.7,299.2L175.7,299.2z M141.8,292.6c-0.2-0.6-0.4-0.4-0.5,0.5
		c0,0.8,0.1,1.2,0.4,1C142,293.8,142,293.2,141.8,292.6L141.8,292.6z M241.7,273.1c10.1-15.6,15.3-23.8,16.5-26.1l1-1.9l-4.2-10.6
		c-2.3-5.8-4.2-11-4.2-11.4c0-0.4-1.3-0.8-2.8-0.8c-3.1,0-6.8-2.8-8.9-6.8l-1.2-2.2l-4.6,0.2l-4.6,0.2l-3.5,8.7
		c-1.9,4.8-4.8,11.2-6.3,14.3c-1.5,3.1-2.8,6.1-2.8,6.7c0,1.4,5.3,15,9.4,24.1c1.8,3.9,4.1,9.4,5.3,12.2s2.4,5.1,2.7,5.1
		C234,284.5,237.6,279.4,241.7,273.1L241.7,273.1z M284.7,282c1.5-2.1,11.5-20.9,18.7-35.1l5.2-10.2l-4-8.9
		c-2.2-4.9-4.6-10.6-5.3-12.8c-0.7-2.1-1.7-4-2.2-4.1c-0.5-0.1-4.2-0.1-8.2,0.1l-7.3,0.4l-1.7,4.9c-2.3,6.6-3.7,9.7-9.9,22.1
		l-5.3,10.6l6.6,12.7c3.6,7,7.7,14.8,9,17.4s2.6,4.7,2.8,4.7C283.2,283.7,284,283,284.7,282L284.7,282z M191.9,275.3
		c2.3-3.8,6.3-10.1,8.7-14.1c2.4-3.9,6.1-10.1,8.2-13.8l3.8-6.7l-3-10.2c-1.7-5.6-3.6-12.1-4.2-14.4l-1.2-4.2l-3.2-0.4
		c-1.7-0.2-4.9-0.7-7.1-0.9l-3.9-0.5v1.2c0,2.6-9.4,22.8-15.8,34l-1.8,3.1l2.2,5.5c2.2,5.7,7.2,17.6,10.2,24.5c1,2.2,2,3.9,2.3,3.9
		C187.4,282.3,189.6,279.2,191.9,275.3L191.9,275.3z M342.4,269.3c0.7-2.6,1.8-6.9,2.5-9.6c0.7-2.7,1.4-5.6,1.6-6.4
		c0.2-0.8-1.7,2.6-4.2,7.5s-4.6,9.3-4.6,9.7c0,0.8,2.2,3.4,2.9,3.4C341,274,341.7,271.9,342.4,269.3L342.4,269.3z M342.3,248.2
		l8.2-16.3v-13.5c0-7.8-0.3-14.1-0.8-14.9c-1-1.8-4.6-3.7-7-3.7c-1,0-3.3,0.6-5.1,1.4c-1.8,0.8-4.6,1.7-6.1,2
		c-3.6,0.7-5.7,3.2-9.5,11.1c-7.5,15.8-9.1,19.3-9.1,20.1c0,1.1,6.6,12.1,12.6,20.9c6.9,10.1,7.2,10.4,7.8,9.8
		C333.8,264.8,337.8,257.2,342.3,248.2L342.3,248.2z M347.5,250.4c0-0.2-0.2-0.4-0.4-0.4s-0.4,0.2-0.4,0.4s0.2,0.4,0.4,0.4
		S347.5,250.6,347.5,250.4z M266.2,233.7c1.9-3.6,4.4-8.2,5.6-10.4c3.2-5.6,6-12.3,5.2-12.3c-0.4,0-2.3,1.5-4.3,3.4
		c-4.6,4.4-8.2,6.2-14,7.2c-2.5,0.4-4.7,0.9-4.9,1c-1,1,7,18.7,8.1,18C262.5,240.4,264.4,237.2,266.2,233.7L266.2,233.7z M363,237.9
		c-0.2-0.6-0.4-0.4-0.5,0.5c0,0.8,0.1,1.2,0.4,1C363.2,239.1,363.3,238.4,363,237.9L363,237.9z M171.7,235.6
		c6.4-9.9,15.3-26.8,14.1-26.8c-0.3,0-2.2,1.6-4.4,3.6c-5.8,5.3-9,7.4-12.7,8.4c-1.9,0.5-3.4,1.3-3.4,1.8c0,1.5,4.1,15.5,4.5,15.5
		C170,238,170.9,236.9,171.7,235.6z M220.4,226.5c3.1-6.1,5.7-11.6,5.7-12.2c0-0.6-0.8-1-1.7-1.1c-1.8,0-6.2-0.4-14-1.1l-4.8-0.4
		l0.5,2.1c0.3,1.2,0.7,2.9,0.9,3.9c0.2,1,1.7,5.6,3.4,10.1c1.7,4.6,3.2,8.8,3.4,9.3c0.2,0.6,0.5,0.9,0.6,0.7
		C214.6,237.8,217.2,232.6,220.4,226.5L220.4,226.5z M364,232.4c0-0.2-0.2-0.4-0.4-0.4s-0.4,0.2-0.4,0.4s0.2,0.4,0.4,0.4
		S364,232.6,364,232.4z M314.9,223.8c1.8-3.7,4.9-9.3,6.8-12.5c1.9-3.2,3.3-6,3-6.2c-0.2-0.2-2.3,0.1-4.7,0.8
		c-2.4,0.6-6.4,1.6-8.8,2.1c-2.5,0.5-5.7,1.2-7.3,1.6l-2.8,0.7l2.2,5.4c2.9,7.2,6.9,14.8,7.6,14.8
		C311.3,230.5,313,227.5,314.9,223.8z M259.7,211.4c0.6-3.2,1.4-5.1,2.2-5.4c0.7-0.3,1.6-1,2.1-1.6l0.9-1.2l1.2,1.1l1.2,1.1
		l-1.5,2.8c-1.5,2.8-2,5.8-0.9,5.8c2.6,0,12.7-9.4,13.2-12.2c1.1-5.6,2.7-14.9,3.1-17.6c0.3-1.8,1.1-3.9,1.8-4.8l1.3-1.6l1.7,1.6
		l1.7,1.6l-0.5,4.4l-0.5,4.4l3-0.8c1.8-0.5,3.5-1.5,4.2-2.6l1.2-1.8l-2.4-2.2c-1.3-1.2-2.4-2.5-2.4-3c0-0.5,1.1-2.1,2.4-3.7l2.4-2.9
		l2.5,1c3.7,1.5,7.5,1.3,10.2-0.7c1.3-1,3.6-2.1,5.1-2.5c3.1-0.9,8.8-0.5,10.2,0.7c0.5,0.4,2.1,0.6,3.5,0.3c1.4-0.3,2.8-0.2,3,0.3
		c0.7,1.1,3.6-0.2,4.2-1.9c0.6-1.6-4.2-12.3-5.6-12.3c-0.4,0-2.1,1.4-3.6,3.1c-2,2.2-3.3,3-4.3,2.7c-0.8-0.2-1.6,0.1-1.8,0.6
		c-0.5,1.4-6.2,4.2-9.8,4.9c-1.7,0.3-3.7,0.2-4.7-0.2c-1.3-0.6-2.6-0.5-4.8,0.1c-1.7,0.5-4.5,1.1-6.2,1.3c-1.7,0.2-4.1,0.7-5.4,1
		c-4.3,1.3-7.9,1.6-7.9,0.8c0-0.4-1.2-0.8-2.7-0.8c-1.5,0-3.3-0.3-4.1-0.8c-1.8-0.9-9.8-1.2-11.1-0.4c-0.7,0.4-0.9,0.2-0.7-0.8
		c0.2-0.9,0.8-1.3,1.9-1.2l1.6,0.2l-0.1-4.3c-0.1-4.4,1.1-7.8,4.5-12.8c1-1.6,1.7-3.7,1.7-5.4c0-2.9,0.5-3.5,1.9-2.3
		c1.2,1,5,2.4,4.5,1.7c-0.2-0.4-1.8-1.5-3.4-2.4l-3-1.7l0.5-1.5c0.3-0.8,0-1.7-0.5-2.1l-1-0.6l0.9-2c0.5-1.1,1.8-3.2,2.9-4.6l2-2.6
		l4.7,0.4c5.7,0.5,6.3-0.5,0.8-1.4c-2.1-0.4-4-1.1-4.2-1.6c-0.2-0.5,1.3-2.5,3.2-4.4l3.5-3.6l2.3,2.3l2.3,2.3l3.1-1.6
		c1.7-0.9,3.3-1.9,3.6-2.3c0.7-1,12.1,0.2,13.4,1.5c0.7,0.6,1.9,1.1,2.7,1.1c0.8,0,2.2,1,3.2,2.3c0.9,1.3,2.5,2.7,3.5,3.1
		c1,0.4,4,3.3,6.7,6.4s4.9,5.4,4.9,5.1c0-0.2,1.1,0.1,2.4,0.8l2.4,1.2l1.3-1.7c0.8-1.1,1.4-1.4,1.8-0.8c0.9,1.4,1.9,1,4.2-1.5
		c1.5-1.6,2.3-3.5,2.6-5.8c0.2-1.9,0.8-5.5,1.2-8l0.8-4.6l-4.6-9l-4.6-9l-3.7-2.7c-2-1.5-3.7-3-3.7-3.3c0-0.4-0.7-0.8-1.5-1.1
		c-0.9-0.2-1.7-1.3-2-2.7c-0.3-1.6-0.9-2.3-1.9-2.3c-0.8,0-1.8-0.8-2.3-1.9c-1.1-2.5-1.7-2.4-2.9,0.5c-0.5,1.3-2,3.5-3.1,4.8
		l-2.1,2.4l-2.4-0.8c-1.3-0.4-2.8-1.1-3.4-1.6c-0.7-0.5-1.8-0.1-3.8,1.5c-6.8,5.4-8,5.3-13.3-1.3c-2.3-2.9-4.8-5.6-5.7-6l-1.5-0.8
		v-3.4c0-2.2-0.4-3.5-1.1-3.8c-1.2-0.5-3.1-7.2-2.4-8.9c0.3-0.7,0.1-0.9-0.7-0.7c-1,0.4-3-1.3-6.2-5.2l-1-1.2l1-1.2l1-1.2l-1.7,1
		c-2.3,1.4-2.8,0.5-1.3-2.3c1.6-3.2,1.1-3.5-1.3-0.8l-2,2.2l-3.5-0.4c-1.9-0.2-4.3-0.7-5.3-1.1l-1.8-0.7v2.2c0,1.2-0.7,2.9-1.5,3.7
		c-0.8,0.8-1.5,1.8-1.5,2.2c0,0.4-1.9,1-4.3,1.5c-3.1,0.6-5.3,1.6-7.8,3.7l-3.5,2.9l-4.7-0.6c-6.1-0.8-6.6-1-6.6-2.9
		c0-0.9-0.6-1.8-1.3-2c-0.7-0.3-1.5-0.8-1.8-1.2c-0.9-1.3-5.5-2.5-9.2-2.2l-3.7,0.2l-3.4-2.8c-1.9-1.5-3.6-2.9-3.8-3
		c-1.1-0.8-0.2-4.5,1.4-5.9c2.1-1.8,1.7-4.8-0.8-4.8c-2.8,0-4.2-1.4-5.2-5.2c-0.5-2-1.2-3.6-1.5-3.4c-0.3,0.2-0.8-0.3-1-1
		c-0.2-0.8-1.3-1.9-2.4-2.4c-2.2-1.2-6.4-7.3-5.8-8.3c0.2-0.4,0.2-1-0.1-1.5c-0.3-0.5-1.5,1.7-2.6,4.9l-2.1,5.8l3.9,4.1
		c2.5,2.7,5.6,4.9,8.6,6.3c2.6,1.2,4.7,2.5,4.7,2.8c0,0.3-0.5,1.3-1.2,2.3l-1.2,1.7l1.2,1.8c1.6,2.4,1.5,6.9-0.2,9l-1.4,1.7
		l-1.5-0.8c-0.8-0.4-2.2-1.7-3.1-2.7c-0.9-1.1-1.6-1.5-1.5-0.9c0.1,0.7-0.5,1.1-1.8,1.2c-2.4,0.2-6.6,1.8-8,3.2
		c-1.9,1.8-4.5,1.9-7.9,0.3c-1.8-0.9-4.2-1.6-5.5-1.6l-2.2,0l1.7,1.3l1.7,1.3l-1.4,3c-0.8,1.6-1.6,4.3-1.9,5.8l-0.5,2.8h-1.8
		c-2.7,0-4.1,0.7-3.7,1.9c0.2,0.6,0.5,1.6,0.7,2.1l0.3,1.1l2.3-0.7l2.3-0.7l2.7,3.3l2.7,3.3l-0.9,3.9c-0.5,2.2-1,6.5-1,9.8l-0.1,5.8
		L169,108c-3.8-1-6-1.2-6-0.5c0,0.4,1.4,1,3.2,1.3c4.8,0.8,10,7,5.8,7c-1,0-1.5,0.5-1.5,1.4c0,0.8,0.7,2.2,1.5,3.1
		c1.7,1.9,2,4.4,0.6,4.8c-4.9,1.4-9.5,2.7-11.2,3.1l-2.1,0.5l-0.7-1.9c-0.4-1-1.2-2-1.8-2.3c-0.7-0.3-1-1.1-0.7-2.4l0.4-2l-3.8,0.5
		l-3.8,0.5l-0.4-1.2c-0.2-0.6-0.9-1.2-1.4-1.2c-1.6,0-6.6-5.2-6.7-7c-0.1-0.9-0.3,4.3-0.6,11.5c-0.2,7.2-0.3,13.6-0.1,14.1
		c0.2,0.5,1.8,2,3.6,3.2c1.8,1.2,5.3,4.2,7.9,6.7l4.6,4.5l0.4,5.3c0.3,3.7,0,6.1-0.8,8.2c-0.6,1.6-1.5,6.4-2,10.7
		c-0.5,4.3-1.3,10.8-1.9,14.5c-1.3,8.1-1.3,8.1-0.3,7.5c0.6-0.4,0.7,0.7,0.6,3.3c-0.2,2.7,0,3.6,0.5,2.8c0.4-0.6,1.5-1.4,2.4-1.9
		l1.6-0.9l0.4,1.1c0.2,0.6-0.1,2.5-0.7,4.2c-0.6,1.7-1.1,3.6-1.1,4.2c0,1.3,4.2,3.2,5.9,2.7c1.2-0.3,3.8-5.6,3.8-7.6
		c0-0.5,0.3-0.9,0.8-0.9s0.7-0.7,0.7-1.5c0-2.1,2.5-6.7,4.7-8.8c1.3-1.2,1.7-2.3,1.5-3.6c-0.2-1.1,0-2.2,0.6-2.5l1-0.6l-2-2.4
		c-2.2-2.6-2.4-3.6-1.2-6.3c0.9-1.9,1.9-2.6,6.9-4.6c3.6-1.5,5.5-1.5,8.3,0c1.2,0.6,2.7,1,3.3,0.7c0.6-0.2,2.8,1.3,5.5,3.9
		c2.4,2.4,5.1,4.6,5.9,5c1.7,0.8,3.2,5.4,2.3,7.1c-0.4,0.7-0.2,1.6,0.6,2.4l1.2,1.3l15.2-0.1l15.2-0.1l0.6-1
		c0.4-0.6,0.9-2.3,1.1-3.9c0.7-4.4,3.4-11,4.7-11.5c1.7-0.7,2.8,0.2,1.8,1.5c-0.5,0.6-0.6,1.4-0.4,1.8c0.3,0.4,0.1,3.5-0.4,6.8
		c-1.1,7.6-0.1,14.1,2.6,17.3l1.9,2.2l0.5-2.1c0.8-3.7,1-4,2.7-4h1.6l-0.6,2.8c-0.3,1.5-0.6,4.2-0.7,5.8l-0.1,3l2.6,1.3
		c1.4,0.7,3.3,1.3,4.2,1.3l1.5,0L259.7,211.4z M255.3,171c0-0.8,3.5-2.7,5-2.7c0.7,0,0.1,1.5-0.9,2.6
		C257.9,172.3,255.3,172.4,255.3,171L255.3,171z M247.7,170.1c-0.7-0.8-0.8-1.5-0.2-2.4c1.4-2.3,2.5-1.9,2.5,0.9
		C250,171.5,249.3,172,247.7,170.1L247.7,170.1z M173.3,163.7l-1.4-1.5l0.9-1.1l0.9-1.1l-1-0.6c-0.7-0.4,0-0.8,1.9-1.1
		c3.1-0.5,5.2-0.3,6,0.5c0.5,0.5-4.8,6.6-5.6,6.5C174.9,165.2,174,164.5,173.3,163.7L173.3,163.7z M211.4,154.8
		c-6.5-2.4-8.6-3.4-8.6-4c0-0.3-0.8-1.5-1.8-2.5c-1.9-1.9-1.9-3.6,0-4.4c0.6-0.2,3.6,1.1,6.9,2.9c6.2,3.6,6.4,3.6,12.2,0.8
		c2.4-1.1,3.4-1.3,3.6-0.7c0.2,0.5,0.9,0.9,1.7,0.9c1.4,0,3.7,1.9,3.7,3c0,1.2-4.9,3.6-8.3,4.1c-1.9,0.3-3.9,0.6-4.5,0.8
		C215.7,156.1,213.5,155.6,211.4,154.8L211.4,154.8z M173.9,138.3l-1.3-1.5l3.3-1.5c4.1-1.9,5.2-1.9,5.2-0.1c0,0.8-1.1,2.1-2.5,3
		C175.4,140.1,175.6,140.1,173.9,138.3L173.9,138.3z M170.1,134.1c-0.8-0.6-2.3-1-3.3-1c-2,0-5.3-1.8-5.3-2.9c0-0.7,10.3-3.1,13-3.1
		c1.1,0,2,0.7,2.6,1.9c0.5,1,1.4,1.9,2,1.9c2.5,0,0.9,1.4-3.2,2.8l-4.4,1.5L170.1,134.1z M209.9,129.3c-0.2-0.4,0.8-1.7,2.2-2.8
		c2.4-1.9,3.6-4.7,2-4.7c-0.3,0-1-0.9-1.5-2l-0.9-2l0.9-2.1l0.9-2.1h5.4h5.4l1.3,1.4l1.3,1.4l-3,2.7c-1.6,1.5-3.6,3.2-4.4,3.8
		l-1.4,1.1l2.2,1.8c1.4,1.2,2,2.2,1.7,3c-0.7,1.8-1.6,1.5-3.9-1.2l-2-2.4l-2.4,2.4C211.2,130.2,210.6,130.4,209.9,129.3L209.9,129.3
		z M253,118.8c-1.9-0.9-4-2.5-4.9-3.6l-1.5-2l1.9,1.3c1,0.7,2.6,1.8,3.4,2.5c2.5,1.8,5.6,2.4,9.2,1.7c4.2-0.9,3.5-1.5-2.7-2.1
		c-4.9-0.5-7-1.7-7-4.1c0-0.5,3.2-1.6,7.7-2.5c8.5-1.8,15.1-3.7,13.2-3.8c-1.4-0.1-9.8,1.6-17,3.4c-3,0.7-5,0.9-5.5,0.5
		c-0.6-0.6-1.1-5.4-1.3-11.4c0-0.8-0.3-0.7-1.1,0.4l-1.1,1.5l0-2.6c0-1.4,0.4-3.6,1-4.9l1-2.2l0.5,1.6c0.3,0.9,0.5,1.9,0.4,2.2
		c-0.3,1.8,0.3,2.5,2.2,2.5c4.8,0,11.3-5.9,11.3-10.1c0-3.3-2.5-6.4-5.3-6.4c-2.8,0-2.8-0.9,0.1-3.1c1.3-1,3.2-2.7,4.3-3.8
		c3.7-3.8,9.2-2.3,15.5,4.2c6.9,7.2,9.7,16.2,7.8,24.9c-0.9,4.1-5.5,10-10,12.8l-2.2,1.4l0.5-1.3c0.3-0.7,0.3-1.3,0.1-1.3
		c-1.1,0-3.9,1.9-5.3,3.6l-1.7,2l-5.1,0.2l-5.1,0.2L253,118.8z M282.2,103c0.1-1,0.1-4.6,0.1-7.9l0-6l-1.9-4.2
		c-1.1-2.6-2.9-5-4.5-6.3l-2.7-2.1l-5.6-0.1l-5.6-0.1l-1.3,1.3c-1.8,1.8-1.1,2.2,2,1.3c5.8-1.7,11.4-0.2,14.3,3.8
		c2.1,2.9,4.1,14.8,3.2,18.9l-0.7,3.1l-3,0.5l-3,0.5l2.9,0.1l2.9,0.1l-0.5,1.7l-0.5,1.7l1.9-2.2C281.3,105.9,282.2,104.1,282.2,103
		L282.2,103z M189.3,118.4c0-0.2,0.2-0.4,0.4-0.4c0.2,0,0.4,0.2,0.4,0.4s-0.2,0.4-0.4,0.4S189.3,118.6,189.3,118.4z M270.3,117.7
		c0-0.2,0.2-0.4,0.4-0.4s0.4,0.2,0.4,0.4c0,0.2-0.2,0.4-0.4,0.4C270.4,118,270.3,117.9,270.3,117.7z M193,116.9
		c0-0.2,0.2-0.4,0.4-0.4c0.2,0,0.4,0.2,0.4,0.4c0,0.2-0.2,0.4-0.4,0.4C193.2,117.3,193,117.1,193,116.9z M181.4,115.7
		c-2.7-0.8-5.3-2.7-4.6-3.4c0.7-0.7,13.3,2.8,13.3,3.6C190,116.7,184.3,116.6,181.4,115.7L181.4,115.7z M190.8,113.5
		c-1-0.3-5.3-1.5-9.6-2.7c-5.2-1.4-8-2.5-8.4-3.4c-0.9-1.8-0.9-5.5,0.1-10.5l0.8-4.1l3.1-0.2c3.9-0.2,6.2-1.7,8.1-5.4
		c2.7-5.2,1.7-10.5-2-10.5h-2l3.2-2.4l3.2-2.4h3.3c3.4,0,5.6,1.2,5.6,3c0,0.6,0.5,1.3,1.1,1.5c1.6,0.6,7.2,7.8,6.7,8.6
		c-0.6,1-2.5,0-3-1.7c-1.1-3.4-13.8-9.5-13.8-6.6c0,0.4,0.8,0.8,1.7,0.8c1.5,0,6.1,2.6,9.7,5.5c2.2,1.8,3.6,6.2,3.6,11.4
		c0,3.1,0.3,4.8,0.7,4.5c0.4-0.3,0.8-1.9,0.8-3.7c0-1.8,0.2-3.9,0.5-4.6l0.5-1.4l0.4,2.2c0.6,3.4-0.5,12.7-1.8,15.6
		c-0.7,1.4-2.3,3.6-3.5,4.9C197.3,114.4,194.7,114.8,190.8,113.5L190.8,113.5z M246.3,110.9c0-0.2,0.2-0.4,0.4-0.4
		c0.2,0,0.4,0.2,0.4,0.4c0,0.2-0.2,0.4-0.4,0.4S246.3,111.1,246.3,110.9z M245.7,104.9c0-2.1,0.2-2.8,0.3-1.7c0.2,1.1,0.2,2.8,0,3.8
		C245.9,107.9,245.7,107,245.7,104.9L245.7,104.9z M122,208.6c-0.2-3.8-0.8-7.3-1.2-7.7c-0.5-0.5-0.6,1.6-0.4,6
		c0.3,6,0.8,8.6,1.7,8.6C122.3,215.5,122.2,212.4,122,208.6L122,208.6z M228.5,203.6c0.7,0,1.3-0.5,1.3-1.2c0-0.8-0.9-1.1-3.6-1.2
		c-20.8-0.4-30.5-0.8-31.7-1.4c-1.8-1-4.5-1-4.5,0c0,0.8,0.5,0.9,7.5,2.3c2.3,0.4,5.5,1.1,7.1,1.4c1.6,0.3,7.4,0.5,12.8,0.4
		C222.8,203.7,227.7,203.6,228.5,203.6L228.5,203.6z M232.8,202.4c0-0.2-0.2-0.4-0.4-0.4c-0.2,0-0.4,0.2-0.4,0.4s0.2,0.4,0.4,0.4
		C232.6,202.8,232.8,202.6,232.8,202.4z M150.3,199.4c0-0.2-0.2-0.4-0.4-0.4c-0.2,0-0.4,0.2-0.4,0.4c0,0.2,0.2,0.4,0.4,0.4
		C150.1,199.8,150.3,199.6,150.3,199.4z M307.9,196.1c1-0.4,4.5-0.9,7.8-1.2c6.9-0.6,15.5-2.3,18.7-3.7c1.2-0.5,4.4-1.8,7.1-2.7
		c2.7-1,5-2,5.1-2.3c0.1-0.3,0.6-0.4,0.9-0.2c0.4,0.2,0.9-0.1,1.1-0.7c0.2-0.6,0.7-1,1.1-0.8c1.1,0.7,10.5-4.5,15.4-8.6
		c0.5-0.4,2.1-1.4,3.7-2.3l2.9-1.6l-2.2,0.5c-1.2,0.3-2.9,1-3.6,1.7c-0.8,0.7-1.5,1.2-1.7,1.1c-0.3-0.2-1.2,0.1-8.9,3
		c-3.3,1.2-7.3,2.9-8.9,3.7c-1.6,0.8-3.6,1.4-4.5,1.4c-0.9,0-2.1,0.4-2.6,0.9c-0.5,0.5-0.9,0.7-0.9,0.4s-1.3,0-2.8,0.7
		c-1.5,0.7-4,1.4-5.4,1.5c-3.4,0.4-11.2,2.4-12.8,3.3c-0.7,0.4-2.4,0.8-3.8,1c-6.1,0.8-17.1,4.5-17.1,5.9
		C296.5,197.8,305.2,197.2,307.9,196.1L307.9,196.1z M321.3,189.7c0-0.2,0.2-0.4,0.4-0.4s0.4,0.2,0.4,0.4c0,0.2-0.2,0.4-0.4,0.4
		S321.3,189.9,321.3,189.7z M372.8,172.2c-0.2-0.7-0.4-0.3-0.4,0.9c0,1.2,0.1,1.8,0.3,1.3C373,174,373,173,372.8,172.2L372.8,172.2z
		 M352.3,160.8c4.2-10.2,8.1-23.1,7.5-24.5c-0.3-0.7-0.7-2.4-0.9-3.6c-0.4-2.8-0.8-3.2-1.4-1.4c-1,3.2-3.7,8.6-4.6,9.4
		c-0.5,0.4-1,2.2-1,4v3.2l-2.1,0c-3.3,0-7.8,1.5-11.2,3.7l-3.1,2l3.2,2.1c1.8,1.2,4.8,4.1,6.9,6.5c2,2.4,3.9,4.2,4.2,3.9
		C350.1,165.9,351.3,163.5,352.3,160.8L352.3,160.8z M348.7,134.3l1.3-2.4l-1.2,1c-1.1,0.9-2.3,3.9-1.6,3.9
		C347.4,136.8,348.1,135.7,348.7,134.3L348.7,134.3z M348.3,127.8c0-0.8-0.1-1.5-0.3-1.5c-0.2,0-0.5,0.7-0.7,1.5
		c-0.2,0.8-0.1,1.5,0.3,1.5C348,129.3,348.3,128.6,348.3,127.8z M288,74c-0.3-0.3-0.7-0.3-1,0c-0.3,0.3,0,0.5,0.5,0.5
		C288.1,74.5,288.3,74.3,288,74z M291.8,73.3c-0.3-0.3-0.7-0.3-1,0c-0.3,0.3,0,0.5,0.5,0.5C291.8,73.8,292.1,73.6,291.8,73.3z
		 M304,71.9c1.8-0.2,3.5-0.6,3.7-0.8c0.5-0.6-8.6,0.4-12,1.3l-2.6,0.7l3.8-0.4C299,72.4,302.2,72.1,304,71.9L304,71.9z M312.3,70.4
		c0-0.2-0.2-0.4-0.4-0.4c-0.2,0-0.4,0.2-0.4,0.4c0,0.2,0.2,0.4,0.4,0.4C312.1,70.8,312.3,70.6,312.3,70.4z M283.1,65l1-1.3l-1.3,1
		c-1.2,1-1.6,1.6-1,1.6C282,66.3,282.6,65.7,283.1,65z M286.5,62.8c-0.3-0.3-0.7-0.3-1,0c-0.3,0.3,0,0.5,0.5,0.5
		C286.6,63.3,286.8,63.1,286.5,62.8z M293.2,59c1.6-0.9,2.7-1.7,2.4-1.7c-0.8,0-8,3.7-8,4.1C287.5,61.9,289.8,61,293.2,59L293.2,59z
		 M192.3,59.3c0-0.2-0.6-0.7-1.3-1.3l-1.3-1l1,1.3C191.7,59.5,192.3,59.9,192.3,59.3z M190,56.3c0-0.2-0.6-0.7-1.3-1.3l-1.3-1l1,1.3
		C189.4,56.5,190,56.9,190,56.3z M277.8,55.4c0-0.2-0.2-0.4-0.4-0.4c-0.2,0-0.4,0.2-0.4,0.4c0,0.2,0.2,0.4,0.4,0.4
		C277.6,55.8,277.8,55.6,277.8,55.4z M281.6,53l1-1.3l-1.5,1.1c-0.8,0.6-1.6,1.2-1.8,1.3c-0.2,0.1,0,0.2,0.5,0.2
		S281.1,53.7,281.6,53L281.6,53z M284.9,51.3c0.3-0.4,0-0.6-0.7-0.3c-1.3,0.5-1.5,1-0.5,1C284.1,52,284.6,51.7,284.9,51.3z
		 M286.8,50.2c0-0.2-0.2-0.4-0.4-0.4S286,50,286,50.2c0,0.2,0.2,0.4,0.4,0.4C286.6,50.5,286.8,50.4,286.8,50.2z M345,436.3
		c-0.2-0.2-0.2-0.7,0-1.1c0.5-0.9,2.6-0.8,2.6,0C347.5,436,345.6,436.8,345,436.3L345,436.3z M78.5,432.5c0.3-0.3,0.7-0.3,1,0
		c0.3,0.3,0,0.5-0.5,0.5C78.5,433,78.3,432.8,78.5,432.5L78.5,432.5z M73.8,428.2c0-0.6,0.3-1.1,0.7-1.1c0.4,0,0.5,0.5,0.3,1.1
		c-0.2,0.6-0.6,1.1-0.7,1.1C73.9,429.3,73.8,428.8,73.8,428.2z M75.3,428.9c0-0.2,0.2-0.4,0.4-0.4c0.2,0,0.4,0.2,0.4,0.4
		s-0.2,0.4-0.4,0.4C75.4,429.3,75.3,429.1,75.3,428.9z M76,427.4c0-0.2,0.2-0.4,0.4-0.4c0.2,0,0.4,0.2,0.4,0.4s-0.2,0.4-0.4,0.4
		C76.2,427.8,76,427.6,76,427.4z M146.3,423.3c0.6-2.3,1.5-2.5,1.5-0.3c0,1-0.4,1.9-1,1.9C146.3,424.8,146.1,424.2,146.3,423.3z
		 M309.7,421c-0.3-0.4,0.1-0.8,0.8-0.8c0.7,0,1,0.3,0.8,0.8c-0.3,0.4-0.6,0.8-0.8,0.8C310.2,421.8,309.9,421.4,309.7,421z
		 M73.9,416.9c0-2.5-0.2-7-0.5-10c-0.4-4-0.3-5.4,0.3-5c0.5,0.3,0.8,1.4,0.8,2.4s0.7,3.2,1.5,4.8c1.8,3.4,1.4,7.6-0.8,10.5l-1.4,1.8
		L73.9,416.9z M146,418.2c-1.3-2.7-1.2-3.2,0.6-3.2h1.5v2.2C148,420.2,147.1,420.6,146,418.2L146,418.2z M367.9,418.6l-1-1.2
		l1.1-1.6c1.3-1.9,1.9-1.1,1.3,1.8l-0.4,2.2L367.9,418.6z M147.4,413.8c-0.2-1.8-3.9-6.6-7.4-9.8l-3.6-3.3l3.4,0.5
		c5.5,0.8,8.6,5,8.1,10.6C147.7,413.4,147.5,414.3,147.4,413.8L147.4,413.8z M308.2,405.3c-0.3-0.4,0.1-0.8,0.7-0.8
		c0.7,0,1,0.3,0.8,0.8c-0.3,0.4-0.6,0.8-0.8,0.8S308.4,405.7,308.2,405.3z M74.2,399.4c-1.5-2.4,5.5-8.4,10.5-8.9l3.3-0.4l-0.9,2.3
		l-0.9,2.3l-4.1,0.9c-2.5,0.6-4.7,1.6-5.7,2.7C75.3,399.5,74.5,399.9,74.2,399.4L74.2,399.4z M356.4,393.8l0.3-3.3l-2-1.6
		c-1.1-0.9-2.5-1.6-3-1.6s-1.9-0.4-3.1-0.8l-2.1-0.8l1.1-0.6c1.3-0.7,8.5,0.7,9.8,2c0.5,0.5,1,2.9,1.2,5.4l0.3,4.6h-1.3h-1.3
		L356.4,393.8z M108.3,387.3c0-2.2,9-6,11.7-5l1.3,0.5l-1.1,1.1c-0.6,0.6-2.7,1.2-4.6,1.3c-1.9,0.1-4.1,0.7-4.9,1.5
		C109.1,388.2,108.3,388.4,108.3,387.3L108.3,387.3z M131.5,386c-0.4-1.1-1.2-2.3-1.7-2.6c-0.6-0.4-0.3-0.6,0.8-0.6
		c1.7,0,3.2,1.9,3.2,4.1C133.8,388.8,132.3,388.2,131.5,386L131.5,386z M328,381.7c0-0.2,0.2-0.4,0.4-0.4s0.4,0.2,0.4,0.4
		s-0.2,0.4-0.4,0.4S328,381.9,328,381.7z M396.5,99.1c0.7-1.1,1.3-2.5,1.3-3.1c0-0.6,1.3-2.3,3-3.8c4-3.6,6-7.5,6-11.7
		c0-6-3-9.2-9.6-10.3c-3.1-0.5-1.6-1.7,1.6-1.3c5.9,0.7,9.1,3.9,10.3,10.3l0.7,3.9l-2.4,3.4c-1.3,1.9-3.3,4.7-4.5,6.4
		c-1.1,1.7-3.3,4.2-4.9,5.6l-2.8,2.6L396.5,99.1z"/>
</g>
</svg>
